<?xml-stylesheet type="text/css" href="icon-styles.css" version="1.0" encoding="UTF-8"?>
<svg class="component" width="250px" height="250px" viewBox="0 0 250 250" version="1.1" xmlns="http://www.w3.org/2000/svg" xmlns:xlink="http://www.w3.org/1999/xlink">
    <!-- Generator: Sketch 52.6 (67491) - http://www.bohemiancoding.com/sketch -->
    <title>RivetIcon_Components</title>
    <desc>Created with Sketch.</desc>
    <g id="RivetIcon_Components" stroke="none" stroke-width="1" fill="none" fill-rule="evenodd">
        <g id="Group-16">
            <circle class="bg-circle" id="Oval" fill="#EBEBEC" fill-rule="nonzero" cx="125" cy="125" r="125"></circle>
            <g class="back" id="Group-12" transform="translate(58.000000, 61.000000)">
                <path class="fill" d="M57.433,81.268 C46.585,81.268 37.792,72.475 37.792,61.628 C37.792,50.78 46.585,41.988 57.433,41.988 C68.279,41.988 77.073,50.78 77.073,61.628 C77.073,72.475 68.279,81.268 57.433,81.268 M105.017,63.814 L115.051,63.149 L114.346,52.513 L104.31,53.178 C103.88,50.778 103.273,48.441 102.497,46.18 L111.58,41.878 L107.018,32.243 L97.933,36.546 C96.658,34.492 95.229,32.544 93.665,30.713 L100.539,23.368 L92.757,16.083 L85.891,23.419 C83.962,21.981 81.918,20.691 79.781,19.553 L83.471,10.208 L73.557,6.292 L69.866,15.637 C68.688,15.319 67.492,15.049 66.28,14.821 L67.03,4.796 L56.401,4 L55.65,14.033 C53.799,14.101 51.972,14.263 50.18,14.536 L47.551,4.844 L37.264,7.634 L39.895,17.335 C37.639,18.229 35.468,19.288 33.396,20.501 L27.383,12.443 L18.839,18.817 L24.857,26.882 C23.098,28.531 21.467,30.312 19.975,32.21 L11.416,26.92 L5.811,35.987 L14.356,41.269 C13.33,43.436 12.467,45.693 11.774,48.024 L1.883,46.25 L0,56.743 L9.905,58.519 C9.838,59.548 9.792,60.582 9.792,61.627 C9.792,63.016 9.865,64.387 9.981,65.745 L0.118,67.73 L2.221,78.182 L12.071,76.198 C12.814,78.513 13.731,80.747 14.803,82.893 L6.366,88.358 L12.162,97.306 L20.599,91.84 C22.131,93.705 23.803,95.45 25.597,97.062 L19.754,105.249 L28.433,111.44 L34.273,103.258 C36.369,104.427 38.56,105.446 40.835,106.292 L38.412,116.04 L48.758,118.61 L51.186,108.847 C53.232,109.115 55.314,109.268 57.433,109.268 C57.757,109.268 58.077,109.25 58.399,109.244 L59.729,119.223 L70.295,117.813 L68.969,107.853 C71.331,107.266 73.625,106.506 75.833,105.58 L80.725,114.352 L90.035,109.16 L85.136,100.373 C87.099,98.967 88.953,97.417 90.677,95.736 L98.463,102.11 L105.215,93.861 L97.433,87.489 C98.74,85.473 99.896,83.352 100.89,81.142 L110.465,84.208 L113.715,74.056 L104.147,70.991 C104.613,68.656 104.907,66.26 105.017,63.814" id="Fill-10" fill-opacity="0.7" fill="#006398"></path>
              <path class="stroke" d="M62.433,77.268 C51.585,77.268 42.792,68.475 42.792,57.628 C42.792,46.78 51.585,37.988 62.433,37.988 C73.279,37.988 82.073,46.78 82.073,57.628 C82.073,68.475 73.279,77.268 62.433,77.268 M110.017,59.814 L120.051,59.149 L119.346,48.513 L109.31,49.178 C108.88,46.778 108.273,44.441 107.497,42.18 L116.58,37.878 L112.018,28.243 L102.933,32.546 C101.658,30.492 100.229,28.544 98.665,26.713 L105.539,19.368 L97.757,12.083 L90.891,19.419 C88.962,17.981 86.918,16.691 84.781,15.553 L88.471,6.208 L78.557,2.292 L74.866,11.637 C73.688,11.319 72.492,11.049 71.28,10.821 L72.03,0.796 L61.401,0 L60.65,10.033 C58.799,10.101 56.972,10.263 55.18,10.536 L52.551,0.844 L42.264,3.634 L44.895,13.335 C42.639,14.229 40.468,15.288 38.396,16.501 L32.383,8.443 L23.839,14.817 L29.857,22.882 C28.098,24.531 26.467,26.312 24.975,28.21 L16.416,22.92 L10.811,31.987 L19.356,37.269 C18.33,39.436 17.467,41.693 16.774,44.024 L6.883,42.25 L5,52.743 L14.905,54.519 C14.838,55.548 14.792,56.582 14.792,57.627 C14.792,59.016 14.865,60.387 14.981,61.745 L5.118,63.73 L7.221,74.182 L17.071,72.198 C17.814,74.513 18.731,76.747 19.803,78.893 L11.366,84.358 L17.162,93.306 L25.599,87.84 C27.131,89.705 28.803,91.45 30.597,93.062 L24.754,101.249 L33.433,107.44 L39.273,99.258 C41.369,100.427 43.56,101.446 45.835,102.292 L43.412,112.04 L53.758,114.61 L56.186,104.847 C58.232,105.115 60.314,105.268 62.433,105.268 C62.757,105.268 63.077,105.25 63.399,105.244 L64.729,115.223 L75.295,113.813 L73.969,103.853 C76.331,103.266 78.625,102.506 80.833,101.58 L85.725,110.352 L95.035,105.16 L90.136,96.373 C92.099,94.967 93.953,93.417 95.677,91.736 L103.463,98.11 L110.215,89.861 L102.433,83.489 C103.74,81.473 104.896,79.352 105.89,77.142 L115.465,80.208 L118.715,70.056 L109.147,66.991 C109.613,64.656 109.907,62.26 110.017,59.814" id="Fill-10" stroke="#192239" stroke-width="3"></path>
            </g>
            <g class="front" id="Group-13" transform="translate(78.000000, 78.000000)">
                <path d="M58.972,70.806 C49.676,70.806 42.139,63.269 42.139,53.973 C42.139,44.676 49.676,37.139 58.972,37.139 C68.268,37.139 75.805,44.676 75.805,53.973 C75.805,63.269 68.268,70.806 58.972,70.806 Z M112.945,64.543 L112.945,43.401 L98.414,43.401 C97.482,39.915 96.097,36.616 94.331,33.563 L104.611,23.283 L89.662,8.333 L79.382,18.614 C76.329,16.848 73.03,15.463 69.543,14.531 L69.543,0 L48.402,0 L48.402,14.531 C44.915,15.463 41.616,16.848 38.563,18.614 L28.283,8.334 L13.333,23.284 L23.613,33.563 C21.847,36.616 20.462,39.915 19.53,43.402 L5,43.402 L5,64.544 L19.53,64.544 C20.462,68.03 21.847,71.329 23.613,74.383 L13.334,84.662 L28.283,99.612 L38.563,89.332 C41.616,91.098 44.915,92.483 48.402,93.415 L48.402,107.945 L69.543,107.945 L69.543,93.415 C73.03,92.483 76.329,91.098 79.383,89.331 L89.662,99.611 L104.612,84.661 L94.331,74.382 C96.097,71.329 97.482,68.029 98.414,64.543 L112.945,64.543 Z" id="Fill-8" stroke="#192239" stroke-width="3" fill="#FEFEFE"></path>
                <path class="fill" d="M53.972,74.806 C44.676,74.806 37.139,67.269 37.139,57.973 C37.139,48.676 44.676,41.139 53.972,41.139 C63.268,41.139 70.805,48.676 70.805,57.973 C70.805,67.269 63.268,74.806 53.972,74.806 Z M107.945,68.543 L107.945,47.401 L93.414,47.401 C92.482,43.915 91.097,40.616 89.331,37.563 L99.611,27.283 L84.662,12.333 L74.382,22.614 C71.329,20.848 68.03,19.463 64.543,18.531 L64.543,4 L43.402,4 L43.402,18.531 C39.915,19.463 36.616,20.848 33.563,22.614 L23.283,12.334 L8.333,27.284 L18.613,37.563 C16.847,40.616 15.462,43.915 14.53,47.402 L0,47.402 L0,68.544 L14.53,68.544 C15.462,72.03 16.847,75.329 18.613,78.383 L8.334,88.662 L23.283,103.612 L33.563,93.332 C36.616,95.098 39.915,96.483 43.402,97.415 L43.402,111.945 L64.543,111.945 L64.543,97.415 C68.03,96.483 71.329,95.098 74.383,93.331 L84.662,103.611 L99.612,88.661 L89.331,78.382 C91.097,75.329 92.482,72.029 93.414,68.543 L107.945,68.543 Z" id="Fill-8" fill-opacity="0.7" fill="#3379CB"></path>
                <path d="M58.972,70.806 C49.676,70.806 42.139,63.269 42.139,53.973 C42.139,44.676 49.676,37.139 58.972,37.139 C68.268,37.139 75.805,44.676 75.805,53.973 C75.805,63.269 68.268,70.806 58.972,70.806 Z M112.945,64.543 L112.945,43.401 L98.414,43.401 C97.482,39.915 96.097,36.616 94.331,33.563 L104.611,23.283 L89.662,8.333 L79.382,18.614 C76.329,16.848 73.03,15.463 69.543,14.531 L69.543,0 L48.402,0 L48.402,14.531 C44.915,15.463 41.616,16.848 38.563,18.614 L28.283,8.334 L13.333,23.284 L23.613,33.563 C21.847,36.616 20.462,39.915 19.53,43.402 L5,43.402 L5,64.544 L19.53,64.544 C20.462,68.03 21.847,71.329 23.613,74.383 L13.334,84.662 L28.283,99.612 L38.563,89.332 C41.616,91.098 44.915,92.483 48.402,93.415 L48.402,107.945 L69.543,107.945 L69.543,93.415 C73.03,92.483 76.329,91.098 79.383,89.331 L89.662,99.611 L104.612,84.661 L94.331,74.382 C96.097,71.329 97.482,68.029 98.414,64.543 L112.945,64.543 Z" id="Fill-8" stroke="#192239" stroke-width="3"></path>
            </g>
        </g>
    </g>
</svg>