<?xml version="1.0" encoding="UTF-8"?>
<svg width="91px" height="29px" viewBox="0 0 91 29" version="1.1" xmlns="http://www.w3.org/2000/svg" xmlns:xlink="http://www.w3.org/1999/xlink">
    <!-- Generator: Sketch 51.2 (57519) - http://www.bohemiancoding.com/sketch -->
    <title>Page 1</title>
    <desc>Created with Sketch.</desc>
    <defs>
        <polygon id="path-1" points="0 29.0625 90.859491 29.0625 90.859491 0.0667889151 0 0.0667889151"></polygon>
    </defs>
    <g id="Page-1" stroke="none" stroke-width="1" fill="none" fill-rule="evenodd">
        <g>
            <polygon id="Fill-1" fill="#E7AA39" points="0 20.625 12.302695 20.625 20.625 0"></polygon>
            <polygon id="Fill-2" fill="#F1B829" points="20.625 0 12.1875 20.7070766 20.625 29.0625"></polygon>
            <g id="Group-16">
                <path d="M74.284017,16.7735699 C73.9148984,16.7735699 73.5373434,16.7939685 73.1512425,16.833998 C72.764813,16.8745758 72.4132245,16.9525511 72.096258,17.0679237 C71.7790724,17.1832963 71.5196266,17.3447303 71.3181398,17.5526643 C71.1162147,17.7602692 71.0154165,18.0259992 71.0154165,18.3489768 C71.0154165,18.8223117 71.1737354,19.1626171 71.490921,19.3702221 C71.8078875,19.577827 72.2373755,19.681794 72.7793849,19.681794 C73.205805,19.681794 73.5690072,19.6099603 73.8688819,19.4654154 C74.1686469,19.32109 74.4107817,19.1338836 74.5952862,18.9030287 C74.7795716,18.672064 74.9122527,18.415327 74.9931104,18.1325982 C75.0736394,17.8498695 75.1141778,17.5698824 75.1141778,17.2927468 L75.1141778,16.7735699 L74.284017,16.7735699 Z M76.566877,20.7204768 L75.1661108,20.7204768 L75.1661108,19.5595121 C74.82011,20.0904237 74.4107817,20.380281 73.9381258,20.5992916 C73.4652508,20.8184119 72.9178728,20.9281914 72.2951153,20.9281914 C71.9147117,20.9281914 71.5515095,20.8764272 71.2056183,20.7724603 C70.8598367,20.6686029 70.5571134,20.5128718 70.2975581,20.3049379 C70.0382218,20.0973329 69.8334481,19.8405959 69.6837847,19.5346171 C69.5336831,19.2291867 69.4588514,18.8740758 69.4588514,18.4701619 C69.4588514,17.9392504 69.5770701,17.4948683 69.813398,17.1371254 C70.0496164,16.7793824 70.3726089,16.4879897 70.7819372,16.2628376 C71.1910464,16.0379048 71.6696187,15.8764709 72.2173254,15.7780971 C72.764813,15.6802716 73.3502094,15.6309202 73.9727478,15.6309202 L75.1141778,15.6309202 L75.1141778,15.2848022 C75.1141778,15.0769779 75.0736394,14.8692633 74.9931104,14.6616584 C74.9122527,14.4537244 74.7911853,14.266518 74.6299082,14.0989426 C74.4683024,13.9319154 74.266706,13.7989956 74.0245712,13.7008412 C73.782546,13.6027963 73.4941755,13.5537739 73.1597885,13.5537739 C72.8599139,13.5537739 72.597729,13.5826171 72.3730148,13.6401937 C72.148191,13.6979897 71.9433077,13.7701525 71.7590223,13.8565723 C71.5745178,13.9433211 71.4072147,14.044327 71.2575513,14.1596996 C71.1074496,14.2750723 70.9634835,14.3845228 70.8252147,14.4884897 L69.891188,13.5190086 C70.3292218,13.1150947 70.8364997,12.7527456 71.4131311,12.5506242 C71.9895434,12.3488317 72.5658461,12.2478258 73.142587,12.2478258 C73.7420076,12.2478258 74.2580505,12.32284 74.6903871,12.4726489 C75.1227237,12.6227869 75.4721209,12.8425652 75.7487681,13.0963412 C76.0255249,13.3504461 76.2353386,13.6834037 76.3680197,14.0125228 C76.5003721,14.3413129 76.566877,14.6847987 76.566877,15.042432 L76.566877,20.7204768 Z" id="Fill-3" fill="#57578E"></path>
                <path d="M41.0586428,16.7735699 C40.6894146,16.7735699 40.3119692,16.7939685 39.9258683,16.833998 C39.5394387,16.8745758 39.1878503,16.9525511 38.8708838,17.0679237 C38.5536982,17.1832963 38.2941428,17.3447303 38.092656,17.5526643 C37.8908405,17.7602692 37.7900423,18.0259992 37.7900423,18.3489768 C37.7900423,18.8223117 37.9482516,19.1626171 38.2655468,19.3702221 C38.5825133,19.577827 39.0120012,19.681794 39.5540107,19.681794 C39.9804308,19.681794 40.343633,19.6099603 40.6435076,19.4654154 C40.9432727,19.32109 41.1854075,19.1338836 41.369912,18.9030287 C41.5541974,18.672064 41.6868785,18.415327 41.7677362,18.1325982 C41.8482652,17.8498695 41.8888036,17.5698824 41.8888036,17.2927468 L41.8888036,16.7735699 L41.0586428,16.7735699 Z M43.3415027,20.7204768 L41.9407366,20.7204768 L41.9407366,19.5595121 C41.5947358,20.0904237 41.1854075,20.380281 40.7127516,20.5992916 C40.2398766,20.8184119 39.692389,20.9281914 39.0697411,20.9281914 C38.6893375,20.9281914 38.3261353,20.8764272 37.9802441,20.7724603 C37.6343529,20.6686029 37.3316296,20.5128718 37.0721838,20.3049379 C36.8128476,20.0973329 36.6080739,19.8405959 36.4584105,19.5346171 C36.3083088,19.2291867 36.2334771,18.8740758 36.2334771,18.4701619 C36.2334771,17.9392504 36.3515863,17.4948683 36.5880238,17.1371254 C36.8242422,16.7793824 37.1471251,16.4879897 37.5564534,16.2628376 C37.9656722,16.0379048 38.4442445,15.8764709 38.9919512,15.7780971 C39.5394387,15.6802716 40.1248352,15.6309202 40.7473736,15.6309202 L41.8888036,15.6309202 L41.8888036,15.2848022 C41.8888036,15.0769779 41.8482652,14.8692633 41.7677362,14.6616584 C41.6868785,14.4537244 41.5658111,14.266518 41.404534,14.0989426 C41.2429282,13.9319154 41.0412223,13.7989956 40.7990875,13.7008412 C40.5571718,13.6027963 40.2688013,13.5537739 39.9344143,13.5537739 C39.6345396,13.5537739 39.3723548,13.5826171 39.1476405,13.6401938 C38.9228168,13.6979897 38.7179335,13.7701525 38.5336481,13.8565723 C38.3491436,13.9433211 38.1818405,14.044327 38.0321771,14.1596996 C37.8820754,14.2750723 37.7381093,14.3845228 37.5998405,14.4884897 L36.6658137,13.5190086 C37.1038476,13.1150947 37.6110159,12.8122963 38.1877569,12.6102846 C38.7641692,12.4083824 39.3404719,12.3073765 39.9172128,12.3073765 C40.5166334,12.3073765 41.0326763,12.3823907 41.4650129,12.5323093 C41.8973495,12.6823376 42.2520058,12.8844591 42.528653,13.138235 C42.8054098,13.3922303 43.0099643,13.6834037 43.1426454,14.0125228 C43.2749979,14.3413129 43.3415027,14.6847987 43.3415027,15.042432 L43.3415027,20.7204768 Z" id="Fill-5" fill="#57578E"></path>
                <polygon id="Fill-7" fill="#57578E" points="43.9535669 12.5150363 45.7522668 12.5150363 48.2080176 18.7990068 50.5601215 12.5150363 52.220443 12.5150363 49.0035564 20.7205316 47.291521 20.7205316"></polygon>
                <mask id="mask-2" fill="white">
                    <use xlink:href="#path-1"></use>
                </mask>
                <g id="Clip-10"></g>
                <path d="M53.2925523,20.7205755 L54.8491175,20.7205755 L54.8491175,12.5150802 L53.2925523,12.5150802 L53.2925523,20.7205755 Z M53.0258754,9.5720908 C53.0258754,9.28683962 53.1288648,9.04117925 53.3346246,8.83532901 C53.540494,8.62925943 53.7858061,8.52627948 54.0706706,8.52627948 C54.3557541,8.52627948 54.6010663,8.62925943 54.8068261,8.83532901 C55.012805,9.04117925 55.1155753,9.28683962 55.1155753,9.5720908 C55.1155753,9.85734198 55.012805,10.1028927 54.8068261,10.3090719 C54.6010663,10.5149222 54.3557541,10.6180118 54.0706706,10.6180118 C53.7858061,10.6180118 53.540494,10.5149222 53.3346246,10.3090719 C53.1288648,10.1028927 53.0258754,9.85734198 53.0258754,9.5720908 Z" id="Fill-9" fill="#57578E" mask="url(#mask-2)"></path>
                <path d="M58.8491404,14.4088695 L60.485358,14.4088695 C60.8078026,14.4088695 61.1278369,14.3828777 61.4451321,14.3308942 C61.7620986,14.2789107 62.0445526,14.1837173 62.2924943,14.045314 C62.5403264,13.9068011 62.7825707,13.7509603 62.9324532,13.4913718 C63.0821166,13.2317834 63.1855444,12.6224579 63.1855444,12.206919 C63.1855444,11.7913801 63.0821166,11.1820546 62.9324532,10.9224662 C62.7825707,10.6628777 62.5403264,10.4203978 62.2924943,10.2819945 C62.0445526,10.1434815 61.7620986,10.0480688 61.4451321,9.9963046 C61.1278369,9.94443078 60.8078026,9.91832936 60.485358,9.91832936 L58.8491404,9.91832936 L58.8491404,14.4088695 Z M57.1889284,8.46410767 L60.952207,8.46410767 C61.7361321,8.46410767 62.3817883,8.57103573 62.8892853,8.78445318 C63.3963441,8.99819965 63.7971264,9.26919375 64.0911942,9.59798384 C64.3850428,9.92688361 64.6330941,10.3397904 64.7483546,10.7492975 C64.8635056,11.1590239 64.9495127,11.8261454 64.9495127,12.206919 C64.9495127,12.5878022 64.8635056,13.2549237 64.7483546,13.6645404 C64.6330941,14.0742669 64.3850428,14.4000959 64.0911942,14.729215 C63.7971264,15.0580051 63.3963441,15.3293282 62.8892853,15.5427456 C62.3817883,15.7564921 61.7361321,15.8628718 60.952207,15.8628718 L58.8491404,15.8628718 L58.8491404,20.7204768 L57.1889284,20.7204768 L57.1889284,8.46410767 Z" id="Fill-11" fill="#57578E" mask="url(#mask-2)"></path>
                <polygon id="Fill-12" fill="#57578E" mask="url(#mask-2)" points="66.3545738 20.7204658 67.9111389 20.7204658 67.9111389 8.37098703 66.3545738 8.37098703"></polygon>
                <path d="M78.4743294,12.5150363 L80.0308945,12.5150363 L80.0308945,13.7785422 L80.0654069,13.7785422 C80.2614156,13.3403017 80.6014999,12.9855198 81.0857695,12.7141967 C81.5701486,12.4432026 82.1290308,12.3073217 82.7632925,12.3073217 C83.1552002,12.3073217 83.5328648,12.3678594 83.8960669,12.4890446 C84.2593787,12.6102297 84.5762356,12.7979844 84.8472951,13.0517604 C85.1181355,13.3055363 85.3341942,13.6316943 85.4959096,14.0297958 C85.6571867,14.4277875 85.7380444,14.8981613 85.7380444,15.4404785 L85.7380444,20.7205316 L84.1814792,20.7205316 L84.1814792,15.8733453 C84.1814792,15.492462 84.1296558,15.1665233 84.0257898,14.8953099 C83.922143,14.6242061 83.7837646,14.4049762 83.6107642,14.2374007 C83.4378734,14.0703736 83.2389066,13.9491884 83.0141923,13.8738453 C82.789259,13.7990505 82.5558892,13.7613241 82.3137544,13.7613241 C81.990762,13.7613241 81.6911065,13.8133075 81.4144593,13.9172745 C81.137812,14.0210222 80.8956773,14.1856366 80.6880549,14.4105693 C80.4804325,14.6356118 80.3188267,14.9213017 80.2037853,15.2676389 C80.0883056,15.6136472 80.0308945,16.0235929 80.0308945,16.4967085 L80.0308945,20.7205316 L78.4743294,20.7205316 L78.4743294,12.5150363 Z" id="Fill-13" fill="#57578E" mask="url(#mask-2)"></path>
                <path d="M88.2231033,11.6714123 L88.6528104,11.6714123 C88.7378314,11.6714123 88.8210995,11.6685608 88.9023954,11.6627483 C88.9836914,11.6568262 89.0563318,11.6403757 89.1202072,11.6133969 C89.1840826,11.5860892 89.2342625,11.545621 89.2711854,11.4912248 C89.307889,11.4370479 89.3264052,11.3595113 89.3264052,11.2587248 C89.3264052,11.1735113 89.3098612,11.1047483 89.2769922,11.0524358 C89.2440137,10.999904 89.2005171,10.9603132 89.1463928,10.9332248 C89.092159,10.9061363 89.0311323,10.8886988 88.9634222,10.8809123 C88.8957121,10.8732354 88.8288785,10.8691776 88.7631405,10.8691776 L88.2231033,10.8691776 L88.2231033,11.6714123 Z M87.8745826,10.5553026 L88.7920652,10.5553026 C89.0941311,10.5553026 89.3166541,10.6126599 89.4599628,10.7267165 C89.603162,10.8411021 89.6748164,11.0242507 89.6748164,11.2761623 C89.6748164,11.5008757 89.610941,11.6655998 89.4831902,11.7702248 C89.3554395,11.8747401 89.1985449,11.9368132 89.0128352,11.9563344 L89.7328849,13.0607094 L89.3554395,13.0607094 L88.6701213,11.9852873 L88.2231033,11.9852873 L88.2231033,13.0607094 L87.8745826,13.0607094 L87.8745826,10.5553026 Z M86.852467,11.8049901 C86.852467,12.0646882 86.8999079,12.3059618 86.9947896,12.5288108 C87.0895619,12.7516599 87.2202708,12.9453368 87.386807,13.1101705 C87.5532335,13.2747849 87.7468318,13.404634 87.9674922,13.499608 C88.1882622,13.5946917 88.4262335,13.6418498 88.6818446,13.6418498 C88.9373461,13.6418498 89.1753175,13.5946917 89.3959779,13.499608 C89.6168574,13.404634 89.8102366,13.2737979 89.9767727,13.1072094 C90.1431993,12.940621 90.2739082,12.7438733 90.36879,12.5170762 C90.4635622,12.2904983 90.5111127,12.0453863 90.5111127,11.7817401 C90.5111127,11.5222613 90.4635622,11.2800007 90.36879,11.0552873 C90.2739082,10.8305738 90.1431993,10.6359099 89.9767727,10.4710762 C89.8102366,10.3064618 89.6168574,10.1774901 89.3959779,10.0844901 C89.1753175,9.99149009 88.9373461,9.94488042 88.6818446,9.94488042 C88.4262335,9.94488042 88.1882622,9.99247712 87.9674922,10.0873415 C87.7468318,10.1824252 87.5532335,10.3121646 87.386807,10.476779 C87.2202708,10.6416127 87.0895619,10.8372637 86.9947896,11.0639512 C86.8999079,11.2906387 86.852467,11.5376151 86.852467,11.8049901 Z M86.5041654,11.8049901 C86.5041654,11.4950632 86.5622339,11.2072896 86.6782614,10.9418887 C86.794508,10.6764877 86.951293,10.4468392 87.148726,10.2530526 C87.346159,10.0593757 87.576461,9.90726368 87.8397415,9.79671651 C88.1029124,9.68638868 88.383723,9.63111509 88.6818446,9.63111509 C88.9759124,9.63111509 89.2557369,9.68638868 89.5209896,9.79671651 C89.7860231,9.90726368 90.0174207,10.0583887 90.2148537,10.2502012 C90.4122866,10.4421233 90.5690716,10.6687012 90.6853183,10.9303733 C90.8013457,11.1917165 90.8594143,11.4757613 90.8594143,11.7817401 C90.8594143,12.0918863 90.8013457,12.3796599 90.6853183,12.6450608 C90.5690716,12.9104618 90.4122866,13.1401104 90.2148537,13.3338969 C90.0174207,13.5276835 89.7860231,13.6796858 89.5209896,13.790233 C89.2557369,13.9006705 88.9759124,13.9558344 88.6818446,13.9558344 C88.383723,13.9558344 88.1029124,13.9006705 87.8397415,13.790233 C87.576461,13.6796858 87.346159,13.5286705 87.148726,13.336858 C86.951293,13.1449358 86.794508,12.9182483 86.6782614,12.6565762 C86.5622339,12.3950137 86.5041654,12.1111882 86.5041654,11.8049901 Z" id="Fill-14" fill="#57578E" mask="url(#mask-2)"></path>
                <polygon id="Fill-15" fill="#57578E" mask="url(#mask-2)" points="34.6517015 20.720718 34.6517015 8.46434894 32.99138 8.46434894 32.99138 18.3656685 26.7502188 8.46434894 24.5759361 8.46434894 24.5759361 20.720718 26.236148 20.720718 26.236148 10.8212629 32.5464436 20.720718"></polygon>
            </g>
        </g>
    </g>
</svg>