<?xml version="1.0" encoding="UTF-8"?>
<svg width="200px" height="93px" viewBox="0 0 200 93" version="1.1" xmlns="http://www.w3.org/2000/svg" xmlns:xlink="http://www.w3.org/1999/xlink">
    <!-- Generator: Sketch 52.5 (67469) - http://www.bohemiancoding.com/sketch -->
    <title>Group</title>
    <desc>Created with Sketch.</desc>
    <g id="Page-1" stroke="none" stroke-width="1" fill="none" fill-rule="evenodd">
        <g id="Group">
            <path d="M109.97,66 L103.7,66 L97.1,53.57 C96.366663,52.2499934 95.4958384,51.3241693 94.4875,50.7925 C93.4791616,50.2608307 92.1500082,49.995 90.5,49.995 L84.12,49.995 L84.12,66 L78.51,66 L78.51,27.225 L95.01,27.225 C99.3000214,27.225 102.572489,28.1783238 104.8275,30.085 C107.082511,31.9916762 108.21,34.778315 108.21,38.445 C108.21,41.4150148 107.375842,43.8533238 105.7075,45.76 C104.039158,47.6666762 101.665015,48.8766641 98.585,49.39 C100.491676,49.9766696 102.068327,51.4066553 103.315,53.68 L109.97,66 Z M94.35,45.43 C97.2100143,45.43 99.3274931,44.8708389 100.7025,43.7525 C102.077507,42.6341611 102.765,40.9016784 102.765,38.555 C102.765,36.2083216 102.086673,34.4941721 100.73,33.4125 C99.3733265,32.3308279 97.2466811,31.79 94.35,31.79 L84.065,31.79 L84.065,45.43 L94.35,45.43 Z M114.8,66 L114.8,39.16 L120.355,39.16 L120.355,66 L114.8,66 Z M114.415,27.17 L120.795,27.17 L120.795,32.945 L114.415,32.945 L114.415,27.17 Z M147.14,39.215 L152.695,39.215 L141.035,66 L136.03,66 L124.48,39.215 L130.31,39.215 L138.67,59.73 L147.14,39.215 Z M178.7,53.515 L159.725,53.515 C160.128335,59.1983617 162.95164,62.04 168.195,62.04 C171.275015,62.04 174.061654,61.0316767 176.555,59.015 L178.26,62.92 C177.013327,63.9833386 175.473343,64.8266635 173.64,65.45 C171.806657,66.0733364 169.936676,66.385 168.03,66.385 C163.739979,66.385 160.357512,65.1566789 157.8825,62.7 C155.407488,60.243321 154.17,56.8516883 154.17,52.525 C154.17,49.7749862 154.710828,47.3366773 155.7925,45.21 C156.874172,43.0833227 158.395824,41.4333392 160.3575,40.26 C162.319176,39.0866608 164.546654,38.5 167.04,38.5 C170.670018,38.5 173.520823,39.6733216 175.5925,42.02 C177.664177,44.3666784 178.7,47.6116459 178.7,51.755 L178.7,53.515 Z M167.15,42.57 C165.023323,42.57 163.327506,43.23916 162.0625,44.5775 C160.797494,45.91584 160.036668,47.8316542 159.78,50.325 L173.915,50.325 C173.804999,47.8316542 173.172506,45.91584 172.0175,44.5775 C170.862494,43.23916 169.24001,42.57 167.15,42.57 Z M197.51,62.095 C198.353338,62.095 199.178329,62.0400006 199.985,61.93 L199.71,66.165 C198.793329,66.3116674 197.840005,66.385 196.85,66.385 C193.366649,66.385 190.772509,65.5325085 189.0675,63.8275 C187.362491,62.1224915 186.51,59.6566828 186.51,56.43 L186.51,43.45 L181.285,43.45 L181.285,39.16 L186.51,39.16 L186.51,31.075 L192.065,31.075 L192.065,39.16 L199.435,39.16 L199.435,43.45 L192.065,43.45 L192.065,56.21 C192.065,60.1333529 193.879982,62.095 197.51,62.095 Z" id="Rivet" fill="#57578E"></path>
            <polygon id="Fill-1-Copy" fill="#585096" points="0 66 39.3686239 66 66 0"></polygon>
            <polygon id="Fill-2-Copy" fill-opacity="0.8" fill="#585096" points="66 0 39 66.2626451 66 93"></polygon>
        </g>
    </g>
</svg>