<?xml version="1.0" encoding="utf-8"?>
<!-- Generator: Adobe Illustrator 23.0.6, SVG Export Plug-In . SVG Version: 6.00 Build 0)  -->
<svg version="1.1" id="Layer_1" xmlns="http://www.w3.org/2000/svg" xmlns:xlink="http://www.w3.org/1999/xlink" x="0px" y="0px"
	 viewBox="0 0 100 100" style="enable-background:new 0 0 100 100;" xml:space="preserve">
<style type="text/css">
	.st0{fill:#192239;}
</style>
<title>Add_New</title>
<desc>Created with Sketch.</desc>
<path class="st0" d="M95.7,46.8C95.7,46.8,95.6,46.8,95.7,46.8l-42.6,0.3l0.3-42.6c0-1.7-1.3-3-3-3c0,0,0,0,0,0c-1.6,0-3,1.3-3,3
	l-0.3,42.7L4.4,47.5c-1.7,0-3,1.4-3,3c0,1.6,1.4,3,3,3c0,0,0,0,0,0L47,53.2l-0.3,42.6c0,1.7,1.3,3,3,3c0,0,0,0,0,0c1.6,0,3-1.3,3-3
	L53,53.1l42.7-0.3c1.7,0,3-1.4,3-3C98.6,48.1,97.3,46.8,95.7,46.8z"/>
</svg>
