<?xml version="1.0" encoding="utf-8"?>
<!-- Generator: Adobe Illustrator 23.0.6, SVG Export Plug-In . SVG Version: 6.00 Build 0)  -->
<svg version="1.1" id="Layer_1" xmlns="http://www.w3.org/2000/svg" xmlns:xlink="http://www.w3.org/1999/xlink" x="0px" y="0px"
	 viewBox="0 0 100 100" style="enable-background:new 0 0 100 100;" xml:space="preserve">
<style type="text/css">
	.st0{fill:#192239;}
</style>
<title>Admin</title>
<desc>Created with Sketch.</desc>
<g>
	<path class="st0" d="M19.5,38.3v41.2H12c-1.4,0-2.5,1.1-2.5,2.5s1.1,2.5,2.5,2.5h75.5c1.4,0,2.5-1.1,2.5-2.5s-1.1-2.5-2.5-2.5H82
		V38.3h10c1.1,0,2.1-0.7,2.4-1.8c0.3-1-0.1-2.2-1-2.8L51.1,4.9c-0.8-0.6-2-0.6-2.8,0L5.6,33.7c-0.9,0.6-1.3,1.8-1,2.8
		c0.3,1.1,1.3,1.8,2.4,1.8H19.5z M24.5,38.3h15v41.2h-15V38.3z M59.5,38.3v41.2h-15V38.3H59.5z M77,79.5H64.5V38.3H77V79.5z
		 M49.7,10l34.2,23.3H15.2L49.7,10z"/>
	<path class="st0" d="M94,89.5H9.5C8.1,89.5,7,90.6,7,92s1.1,2.5,2.5,2.5H94c1.4,0,2.5-1.1,2.5-2.5S95.4,89.5,94,89.5z"/>
</g>
</svg>
