<?xml version="1.0" encoding="utf-8"?>
<!-- Generator: Adobe Illustrator 23.0.6, SVG Export Plug-In . SVG Version: 6.00 Build 0)  -->
<svg version="1.1" id="Layer_1" xmlns="http://www.w3.org/2000/svg" xmlns:xlink="http://www.w3.org/1999/xlink" x="0px" y="0px"
	 viewBox="0 0 100 100" style="enable-background:new 0 0 100 100;" xml:space="preserve">
<style type="text/css">
	.st0{fill-rule:evenodd;clip-rule:evenodd;fill:#192239;}
</style>
<title>Amount</title>
<desc>Created with Sketch.</desc>
<path class="st0" d="M72.9,57.1c-2.1-2.4-4.6-4.3-7.5-5.4c-3-1.2-7.1-2.4-12.1-3.7c-4.4-1.1-7.9-2.1-10.4-3.1
	c-2.6-1-4.8-2.4-6.6-4.2c-1.8-1.9-2.7-4.4-2.7-7.5c0-4.4,1.6-8,4.8-10.5c3.2-2.5,7.5-3.7,12.9-3.7c6.7,0,12.9,2,18.3,5.9
	c0.7,0.5,1.7,0.7,2.5,0.5c0.8-0.2,1.5-0.7,1.9-1.5c0.6-1.2,0.3-2.8-0.8-3.6c-2-1.6-4.4-3-6.9-4.1c-3.6-1.6-7.3-2.5-11.2-2.9
	l-0.6-0.1V4.4c0-1.4-1.2-2.6-2.6-2.6H51c-1.4,0-2.6,1.2-2.6,2.6v8.7l-0.6,0.1c-4.3,0.4-8.1,1.5-11.4,3.4c-3.3,1.8-5.8,4.2-7.6,7.1
	c-1.8,2.9-2.7,6.2-2.7,9.8c0,4.4,1.1,7.9,3.3,10.5c2.2,2.6,4.9,4.6,8,5.9c3.2,1.3,7.5,2.6,12.7,3.9c4.1,1,7.4,1.9,9.8,2.8
	c2.5,0.9,4.6,2.2,6.2,3.8c1.7,1.7,2.5,3.9,2.5,6.6c0,4.4-1.6,7.9-4.9,10.3c-3.2,2.4-7.6,3.6-13.2,3.6c-4.5,0-8.7-0.7-12.5-2.1
	c-2.7-1-5.3-2.4-7.9-4.3c-0.5-0.3-1-0.5-1.6-0.5c-0.2,0-0.5,0-0.7,0.1c-0.8,0.2-1.4,0.7-1.8,1.4l-0.2,0.4c-0.6,1.2-0.2,2.6,0.8,3.5
	c2.4,1.9,5.2,3.5,8.2,4.6c3.9,1.5,8.3,2.4,12.9,2.7l0.6,0v8.9c0,1.3,1,2.3,2.3,2.3h1.3c1.3,0,2.3-1,2.3-2.3v-9l0.6-0.1
	c6.4-0.7,11.5-2.9,15.3-6.5c3.7-3.6,5.6-8.1,5.6-13.3C76,62.7,75,59.5,72.9,57.1z"/>
</svg>
