<?xml version="1.0" encoding="utf-8"?>
<!-- Generator: Adobe Illustrator 23.0.6, SVG Export Plug-In . SVG Version: 6.00 Build 0)  -->
<svg version="1.1" id="Layer_1" xmlns="http://www.w3.org/2000/svg" xmlns:xlink="http://www.w3.org/1999/xlink" x="0px" y="0px"
	 viewBox="0 0 100 100" style="enable-background:new 0 0 100 100;" xml:space="preserve">
<style type="text/css">
	.st0{fill-rule:evenodd;clip-rule:evenodd;fill:#192239;}
</style>
<title>Arrange_New</title>
<desc>Created with Sketch.</desc>
<g>
	<path class="st0" d="M87.7,59.1c-0.4-0.4-0.9-0.6-1.4-0.6H15c-1.1,0-2,0.9-2,2c0,0.5,0.2,1.1,0.6,1.4l37.2,35.6
		c0.8,0.8,2.1,0.7,2.8-0.1L87.8,62C88.5,61.2,88.5,59.9,87.7,59.1z"/>
	<path class="st0" d="M14.7,42.4H86c1.1,0,2-0.9,2-2c0-0.5-0.2-1.1-0.6-1.4L50.2,3.4c-0.8-0.8-2.1-0.7-2.8,0.1L13.2,39
		c-0.8,0.8-0.7,2.1,0.1,2.8C13.7,42.2,14.2,42.4,14.7,42.4z"/>
</g>
</svg>
