<?xml version="1.0" encoding="utf-8"?>
<!-- Generator: Adobe Illustrator 23.0.6, SVG Export Plug-In . SVG Version: 6.00 Build 0)  -->
<svg version="1.1" id="Layer_1" xmlns="http://www.w3.org/2000/svg" xmlns:xlink="http://www.w3.org/1999/xlink" x="0px" y="0px"
	 viewBox="0 0 100 100" style="enable-background:new 0 0 100 100;" xml:space="preserve">
<style type="text/css">
	.st0{fill:#394059;}
</style>
<title>AuditSearch</title>
<desc>Created with Sketch.</desc>
<g>
	<path class="st0" d="M71.5,5H26.9C24.2,5,22,7.2,22,10v10h4.9V10h39.6v15c0,2.8,2.2,5,4.9,5h14.8v59.6H26.9V80H22v9.7
		c0,2.8,2.2,5,4.9,5h59.4c2.7,0,4.9-2.2,4.9-5V25.1L71.5,5z M71.5,25.1v-13l12.8,13H71.5z"/>
	<path class="st0" d="M27.1,67.3C30.2,69,33.9,70,37.8,70C50,70,60,60.5,60,48.8C60,37,50,27.5,37.8,27.5
		c-12.2,0-22.1,9.5-22.1,21.3c0,6.2,2.8,11.8,7.2,15.7L5.5,86.3c-0.9,1.1-0.7,2.7,0.4,3.5c0.5,0.4,1,0.5,1.6,0.5
		c0.7,0,1.5-0.3,2-0.9L27.1,67.3C27,67.3,27,67.3,27.1,67.3z M20.7,48.8c0-9,7.7-16.3,17.1-16.3S55,39.8,55,48.8
		c0,9-7.7,16.3-17.1,16.3S20.7,57.7,20.7,48.8z"/>
</g>
</svg>
