<?xml version="1.0" encoding="UTF-8"?>
<svg width="20px" height="18px" viewBox="0 0 20 18" version="1.1" xmlns="http://www.w3.org/2000/svg" xmlns:xlink="http://www.w3.org/1999/xlink">
    <!-- Generator: Sketch 61 (89581) - https://sketch.com -->
    <title>Batch Processor</title>
    <desc>Created with Sketch.</desc>
    <g id="Page-2" stroke="none" stroke-width="1" fill="none" fill-rule="evenodd">
        <g id="Batch-Processor" fill="#192239">
            <g id="Group-104">
                <path d="M19.4075894,0.0753480753 C19.6307348,0.0753480753 19.8116298,0.256243126 19.8116298,0.479388479 L19.8116298,0.479388479 L19.8116298,17.1433251 C19.8116298,17.3664705 19.6307348,17.5473655 19.4075894,17.5473655 L19.4075894,17.5473655 L0.55965056,17.5473655 C0.336505206,17.5473655 0.155610156,17.3664705 0.155610156,17.1433251 L0.155610156,17.1433251 L0.155610156,0.479388479 C0.155610156,0.256243126 0.336505206,0.0753480753 0.55965056,0.0753480753 L0.55965056,0.0753480753 Z M18.7196102,5.67034808 L1.24761016,5.67034808 L1.24761125,16.4553645 L18.7196287,16.4553645 L18.7196102,5.67034808 Z M4.22369944,8.57428504 L4.29294733,8.63214049 L6.72139486,11.060588 C6.89496121,11.2341544 6.91424636,11.5035788 6.77925031,11.6984469 L6.72139486,11.7676948 L4.29294733,14.1961423 C4.09768518,14.3914045 3.78110269,14.3914045 3.58584055,14.1961423 C3.4122742,14.022576 3.39298905,13.7531516 3.5279851,13.5582834 L3.58584055,13.4890356 L5.66067041,11.41452 L3.58584055,9.33924727 C3.4122742,9.16568092 3.39298905,8.89625652 3.5279851,8.70138838 L3.58584055,8.63214049 C3.7594069,8.45857414 4.0288313,8.43928899 4.22369944,8.57428504 Z M16.0606061,13.3383838 C16.3367484,13.3383838 16.5606061,13.5622415 16.5606061,13.8383838 C16.5606061,14.0838437 16.3837309,14.2879922 16.1504817,14.3303282 L16.0606061,14.3383838 L7.77777778,14.3383838 C7.5016354,14.3383838 7.27777778,14.1145262 7.27777778,13.8383838 C7.27777778,13.5929239 7.45465294,13.3887755 7.68790215,13.3464395 L7.77777778,13.3383838 L16.0606061,13.3383838 Z M18.7196287,1.16734917 L1.24761125,1.16734917 L1.24761016,4.67034808 L18.7196102,4.67034808 L18.7196287,1.16734917 Z" id="Combined-Shape"></path>
            </g>
        </g>
    </g>
</svg>