<?xml version="1.0" encoding="utf-8"?>
<!-- Generator: Adobe Illustrator 23.0.6, SVG Export Plug-In . SVG Version: 6.00 Build 0)  -->
<svg version="1.1" id="Layer_1" xmlns="http://www.w3.org/2000/svg" xmlns:xlink="http://www.w3.org/1999/xlink" x="0px" y="0px"
	 viewBox="0 0 100 100" style="enable-background:new 0 0 100 100;" xml:space="preserve">
<style type="text/css">
	.st0{fill:#192239;}
</style>
<title>Beginning_New</title>
<desc>Created with Sketch.</desc>
<g>
	<path class="st0" d="M9.2,50L49.5,9.7c1.2-1.2,1.2-3.1,0-4.2c-1.2-1.2-3.1-1.2-4.2,0L2.9,47.9c-1.2,1.2-1.2,3.1,0,4.2l42.4,42.4
		c0.6,0.6,1.4,0.9,2.1,0.9c0.8,0,1.5-0.3,2.1-0.9c1.2-1.2,1.2-3.1,0-4.2L9.2,50z"/>
	<path class="st0" d="M56.2,50L96.5,9.7c1.2-1.2,1.2-3.1,0-4.2c-1.2-1.2-3.1-1.2-4.2,0L49.9,47.9C49.3,48.4,49,49.2,49,50
		c0,0.8,0.3,1.6,0.9,2.1l42.4,42.4c0.6,0.6,1.4,0.9,2.1,0.9s1.5-0.3,2.1-0.9c1.2-1.2,1.2-3.1,0-4.2L56.2,50z"/>
</g>
</svg>
