<?xml version="1.0" encoding="utf-8"?>
<!-- Generator: Adobe Illustrator 23.0.6, SVG Export Plug-In . SVG Version: 6.00 Build 0)  -->
<svg version="1.1" id="Layer_1" xmlns="http://www.w3.org/2000/svg" xmlns:xlink="http://www.w3.org/1999/xlink" x="0px" y="0px"
	 viewBox="0 0 100 100" style="enable-background:new 0 0 100 100;" xml:space="preserve">
<style type="text/css">
	.st0{fill:#192239;}
</style>
<title>Bell</title>
<desc>Created with Sketch.</desc>
<path class="st0" d="M97.5,78.8c0,0-6.7-6.5-9.8-10.1c-1.1-1.2-1.5-2.9-1.2-4.5C91.1,36.6,75.7,10,52.3,8.3V4.4
	c0-1.4-1.1-2.5-2.5-2.5c-1.4,0-2.5,1.1-2.5,2.5v3.9C24.1,10.2,8.8,36.7,13.5,64.2c0.3,1.7-0.1,3.4-1.3,4.6c-3.3,3.6-10,9.9-10,9.9
	c-2.6,3.4-0.1,8.2,4.4,8.2h29.6c0,0.2,0,0.3,0.1,0.5c1.4,6.7,7.1,11.4,13.6,11.4c6.3,0,11.9-4.5,13.5-10.9c0.1-0.4,0.1-0.7,0-1H93
	C97.4,86.9,100,82.2,97.5,78.8z M49.9,93.9c-4,0-7.5-2.8-8.6-7h17.2C57.4,91,53.9,93.9,49.9,93.9z M7.1,81.6c2.1-2,6.6-6.3,9.2-9.2
	c2.2-2.5,3.1-5.8,2.6-9.2c-2.5-14.5,1-29,9.4-38.9c4.1-4.9,11.2-10.7,21.8-10.7c10.5,0,17.6,5.8,21.8,10.7
	c8.3,9.9,11.9,24.4,9.4,38.9c-0.6,3.3,0.3,6.5,2.4,9c2.5,2.9,6.9,7.3,9,9.3L7.1,81.6z"/>
</svg>
