<?xml version="1.0" encoding="utf-8"?>
<!-- Generator: Adobe Illustrator 23.0.6, SVG Export Plug-In . SVG Version: 6.00 Build 0)  -->
<svg version="1.1" id="Layer_1" xmlns="http://www.w3.org/2000/svg" xmlns:xlink="http://www.w3.org/1999/xlink" x="0px" y="0px"
	 viewBox="0 0 100 100" style="enable-background:new 0 0 100 100;" xml:space="preserve">
<style type="text/css">
	.st0{fill:#192239;}
</style>
<title>BusinessAdmin_New</title>
<desc>Created with Sketch.</desc>
<g>
	<path class="st0" d="M97.3,2h-48c-1.1,0-2,0.9-2,2v31.4H4c-1.1,0-2,0.9-2,2v59.9c0,1.1,0.9,2,2,2h43.3h5.4h44.6c1.1,0,2-0.9,2-2V4
		C99.3,2.9,98.4,2,97.3,2z M47.3,93.9H7.4v-53h39.9V93.9z M93.9,93.9H52.7V7.4h41.2V93.9z"/>
	<path class="st0" d="M19,69.9h16.8c1.4,0,2.5-1.1,2.5-2.5s-1.1-2.5-2.5-2.5H19c-1.4,0-2.5,1.1-2.5,2.5S17.6,69.9,19,69.9z"/>
	<path class="st0" d="M19,85.5h16.8c1.4,0,2.5-1.1,2.5-2.5s-1.1-2.5-2.5-2.5H19c-1.4,0-2.5,1.1-2.5,2.5S17.6,85.5,19,85.5z"/>
	<path class="st0" d="M19,54.3h16.8c1.4,0,2.5-1.1,2.5-2.5s-1.1-2.5-2.5-2.5H19c-1.4,0-2.5,1.1-2.5,2.5S17.6,54.3,19,54.3z"/>
	<path class="st0" d="M65.5,32.1c1.4,0,2.5-1.1,2.5-2.5V18.1c0-1.4-1.1-2.5-2.5-2.5S63,16.8,63,18.1v11.4C63,31,64.2,32.1,65.5,32.1
		z"/>
	<path class="st0" d="M81.1,32.1c1.4,0,2.5-1.1,2.5-2.5V18.1c0-1.4-1.1-2.5-2.5-2.5s-2.5,1.1-2.5,2.5v11.4
		C78.6,31,79.7,32.1,81.1,32.1z"/>
	<path class="st0" d="M65.5,58.9c1.4,0,2.5-1.1,2.5-2.5V45c0-1.4-1.1-2.5-2.5-2.5S63,43.6,63,45v11.4C63,57.8,64.2,58.9,65.5,58.9z"
		/>
	<path class="st0" d="M81.1,58.9c1.4,0,2.5-1.1,2.5-2.5V45c0-1.4-1.1-2.5-2.5-2.5s-2.5,1.1-2.5,2.5v11.4
		C78.6,57.8,79.7,58.9,81.1,58.9z"/>
	<path class="st0" d="M65.5,85.7c1.4,0,2.5-1.1,2.5-2.5V71.8c0-1.4-1.1-2.5-2.5-2.5S63,70.4,63,71.8v11.4
		C63,84.6,64.2,85.7,65.5,85.7z"/>
	<path class="st0" d="M81.1,85.7c1.4,0,2.5-1.1,2.5-2.5V71.8c0-1.4-1.1-2.5-2.5-2.5s-2.5,1.1-2.5,2.5v11.4
		C78.6,84.6,79.7,85.7,81.1,85.7z"/>
</g>
</svg>
