<?xml version="1.0" encoding="utf-8"?>
<!-- Generator: Adobe Illustrator 23.0.6, SVG Export Plug-In . SVG Version: 6.00 Build 0)  -->
<svg version="1.1" id="Layer_1" xmlns="http://www.w3.org/2000/svg" xmlns:xlink="http://www.w3.org/1999/xlink" x="0px" y="0px"
	 viewBox="0 0 100 100" style="enable-background:new 0 0 100 100;" xml:space="preserve">
<style type="text/css">
	.st0{fill:#192239;}
</style>
<title>Calculator</title>
<desc>Created with Sketch.</desc>
<g>
	<path class="st0" d="M1,1.3v97.3h97.3V1.3H1z M47,93.2H6.4V52.4H47V93.2z M47,47.4H6.4V6.7H47V47.4z M92.9,93.2H52V52.4h40.9V93.2z
		 M92.9,47.4H52V6.7h40.9V47.4z"/>
	<path class="st0" d="M17.9,29.3h5.4v5.4c0,1.4,1.1,2.5,2.5,2.5s2.5-1.1,2.5-2.5v-5.4h5.4c1.4,0,2.5-1.1,2.5-2.5s-1.1-2.5-2.5-2.5
		h-5.4v-5.4c0-1.4-1.1-2.5-2.5-2.5s-2.5,1.1-2.5,2.5v5.4h-5.4c-1.4,0-2.5,1.1-2.5,2.5S16.5,29.3,17.9,29.3z"/>
	<path class="st0" d="M22.3,73.9l-3.8,3.8c-1,1-1,2.6,0,3.5c0.5,0.5,1.1,0.7,1.8,0.7s1.3-0.2,1.8-0.7l3.8-3.8l3.8,3.8
		c0.5,0.5,1.1,0.7,1.8,0.7s1.3-0.2,1.8-0.7c1-1,1-2.6,0-3.5l-3.8-3.8l3.8-3.8c1-1,1-2.6,0-3.5c-1-1-2.6-1-3.5,0l-3.8,3.8L22,66.5
		c-1-1-2.6-1-3.5,0c-1,1-1,2.6,0,3.5L22.3,73.9z"/>
	<path class="st0" d="M64.5,29.3h15.8c1.4,0,2.5-1.1,2.5-2.5s-1.1-2.5-2.5-2.5H64.5c-1.4,0-2.5,1.1-2.5,2.5S63.2,29.3,64.5,29.3z"/>
	<path class="st0" d="M64.5,70.6h15.8c1.4,0,2.5-1.1,2.5-2.5s-1.1-2.5-2.5-2.5H64.5c-1.4,0-2.5,1.1-2.5,2.5S63.2,70.6,64.5,70.6z"/>
	<path class="st0" d="M64.5,82.2h15.8c1.4,0,2.5-1.1,2.5-2.5s-1.1-2.5-2.5-2.5H64.5c-1.4,0-2.5,1.1-2.5,2.5S63.2,82.2,64.5,82.2z"/>
</g>
</svg>
