<?xml version="1.0" encoding="utf-8"?>
<!-- Generator: Adobe Illustrator 23.0.6, SVG Export Plug-In . SVG Version: 6.00 Build 0)  -->
<svg version="1.1" id="Layer_1" xmlns="http://www.w3.org/2000/svg" xmlns:xlink="http://www.w3.org/1999/xlink" x="0px" y="0px"
	 viewBox="0 0 100 100" style="enable-background:new 0 0 100 100;" xml:space="preserve">
<style type="text/css">
	.st0{fill:#192239;}
</style>
<title>Chart_New</title>
<desc>Created with Sketch.</desc>
<g>
	<path class="st0" d="M90,50.5l-40.5-0.1V10c0-1.4-1.1-2.5-2.5-2.5C21.9,7.5,1.5,27.9,1.5,53S21.9,98.5,47,98.5S92.5,78.1,92.5,53
		C92.5,51.6,91.4,50.5,90,50.5z M47,93.5C24.7,93.5,6.5,75.3,6.5,53c0-21.5,16.8-39.1,38-40.4v40.3c0,1.4,1.1,2.5,2.5,2.5l40.4,0.1
		C86.1,76.7,68.5,93.5,47,93.5z"/>
	<path class="st0" d="M57,2.5c-1.4,0-2.5,1.1-2.5,2.5v38c0,1.4,1.1,2.5,2.5,2.5h38c1.4,0,2.5-1.1,2.5-2.5C97.5,20.7,79.3,2.5,57,2.5
		z M59.5,40.5V7.6c17.6,1.2,31.7,15.3,32.9,32.9H59.5z"/>
</g>
</svg>
