<?xml version="1.0" encoding="utf-8"?>
<!-- Generator: Adobe Illustrator 24.2.3, SVG Export Plug-In . SVG Version: 6.00 Build 0)  -->
<svg version="1.1" id="Layer_1" xmlns="http://www.w3.org/2000/svg" xmlns:xlink="http://www.w3.org/1999/xlink" x="0px" y="0px"
	 viewBox="0 0 100 100" style="enable-background:new 0 0 100 100;" xml:space="preserve">
<style type="text/css">
	.st0{fill-rule:evenodd;clip-rule:evenodd;}
</style>
<path class="st0" d="M100,2.5c0-1.4-1.1-2.5-2.5-2.5H2.5C1.1,0,0,1.1,0,2.5v72.1C0,75.9,1.1,77,2.5,77l74,0l19.3,22.2
	c0.5,0.5,1.1,0.8,1.8,0.8c1.4,0,2.5-1.1,2.5-2.4l0-23l0,0V2.5z M53.1,59l-0.2,0H25c-1.4,0-2.6-1.2-2.6-2.6c0-1.4,1.1-2.5,2.4-2.6
	l0.2,0h27.9c1.4,0,2.6,1.2,2.6,2.6C55.5,57.8,54.4,59,53.1,59z M74.8,41.4l-0.2,0H25c-1.4,0-2.6-1.2-2.6-2.6c0-1.4,1.1-2.5,2.4-2.6
	l0.2,0h49.6c1.4,0,2.6,1.2,2.6,2.6C77.2,40.2,76.1,41.3,74.8,41.4z M74.8,22.7l-0.2,0H25c-1.4,0-2.6-1.2-2.6-2.6
	c0-1.4,1.1-2.5,2.4-2.6l0.2,0h49.6c1.4,0,2.6,1.2,2.6,2.6C77.2,21.5,76.1,22.6,74.8,22.7z"/>
</svg>
