<?xml version="1.0" encoding="utf-8"?>
<!-- Generator: Adobe Illustrator 24.2.3, SVG Export Plug-In . SVG Version: 6.00 Build 0)  -->
<svg version="1.1" id="Layer_1" xmlns="http://www.w3.org/2000/svg" xmlns:xlink="http://www.w3.org/1999/xlink" x="0px" y="0px"
	 viewBox="0 0 100 100" style="enable-background:new 0 0 100 100;" xml:space="preserve">
<g>
	<path d="M97.5,0H2.5C1.1,0,0,1.1,0,2.5v71.9c0,1.4,1.1,2.5,2.5,2.5l74,0L95.7,99c0.5,0.5,1.1,0.8,1.8,0.8c1.4,0,2.5-1.1,2.5-2.5
		V2.5C100,1.1,98.9,0,97.5,0z M95,90.6L78.7,71.8H5V5h90V90.6z"/>
	<path d="M25,22.7h49.6l0.2,0c1.3-0.1,2.4-1.2,2.4-2.6c0-1.4-1.2-2.6-2.6-2.6H25l-0.2,0c-1.3,0.1-2.4,1.2-2.4,2.6
		C22.4,21.5,23.6,22.7,25,22.7z"/>
	<path d="M25,41.3h49.6l0.2,0c1.3-0.1,2.4-1.2,2.4-2.6c0-1.4-1.2-2.6-2.6-2.6H25l-0.2,0c-1.3,0.1-2.4,1.2-2.4,2.6
		C22.4,40.1,23.6,41.3,25,41.3z"/>
	<path d="M25,58.9h27.9l0.2,0c1.3-0.1,2.4-1.2,2.4-2.6c0-1.4-1.2-2.6-2.6-2.6H25l-0.2,0c-1.3,0.1-2.4,1.2-2.4,2.6
		C22.4,57.8,23.6,58.9,25,58.9z"/>
</g>
</svg>
