<?xml version="1.0" encoding="utf-8"?>
<!-- Generator: Adobe Illustrator 22.0.0, SVG Export Plug-In . SVG Version: 6.00 Build 0)  -->
<svg version="1.1" id="Layer_1" xmlns="http://www.w3.org/2000/svg" xmlns:xlink="http://www.w3.org/1999/xlink" x="0px" y="0px"
	 viewBox="0 0 20 20" style="enable-background:new 0 0 20 20;" xml:space="preserve">
<style type="text/css">
	.st0{fill:#DA1C5C;}
</style>
<path class="st0" d="M12.9,11.8C13.6,11.1,14,10.1,14,9c0-2.2-1.8-4-4-4C7.8,5,6,6.8,6,9c0,1.1,0.4,2.1,1.1,2.8
	C4.4,12.6,4,15.2,4,17.5C4,17.8,4.2,18,4.5,18S5,17.8,5,17.5c0-2.7,0.6-4.6,3.2-4.9C8.7,12.8,9.3,13,10,13c0.7,0,1.3-0.2,1.8-0.4
	c2.6,0.4,3.2,2.3,3.2,4.9c0,0.3,0.2,0.5,0.5,0.5s0.5-0.2,0.5-0.5C16,15.2,15.6,12.6,12.9,11.8z M7,9c0-1.7,1.3-3,3-3
	c1.7,0,3,1.3,3,3c0,1.7-1.3,3-3,3C8.3,12,7,10.7,7,9z"/>
</svg>
