<?xml version="1.0" encoding="utf-8"?>
<!-- Generator: Adobe Illustrator 22.0.1, SVG Export Plug-In . SVG Version: 6.00 Build 0)  -->
<svg version="1.1" id="Layer_1" xmlns="http://www.w3.org/2000/svg" xmlns:xlink="http://www.w3.org/1999/xlink" x="0px" y="0px"
	 viewBox="0 0 20 20" style="enable-background:new 0 0 20 20;" xml:space="preserve">
<style type="text/css">
	.st0{fill:#DA1C5C;}
</style>
<g>
	<path class="st0" d="M10,3c3.9,0,7,3.1,7,7s-3.1,7-7,7s-7-3.1-7-7S6.1,3,10,3 M10,2c-4.4,0-8,3.6-8,8s3.6,8,8,8s8-3.6,8-8
		S14.4,2,10,2L10,2z"/>
</g>
<g>
	<path class="st0" d="M12,10h-2V6c0-0.3-0.2-0.5-0.5-0.5S9,5.7,9,6v4v1h1h2c0.3,0,0.5-0.2,0.5-0.5C12.5,10.2,12.3,10,12,10z"/>
</g>
</svg>
