<?xml version="1.0" encoding="utf-8"?>
<!-- Generator: Adobe Illustrator 23.0.6, SVG Export Plug-In . SVG Version: 6.00 Build 0)  -->
<svg version="1.1" id="Layer_1" xmlns="http://www.w3.org/2000/svg" xmlns:xlink="http://www.w3.org/1999/xlink" x="0px" y="0px"
	 viewBox="0 0 100 100" style="enable-background:new 0 0 100 100;" xml:space="preserve">
<style type="text/css">
	.st0{fill:#192239;}
</style>
<title>Copy</title>
<desc>Created with Sketch.</desc>
<path class="st0" d="M91,4H31c-2.8,0-5,2.2-5,5v15H9c-1.7,0-3,1.3-3,3v64c0,1.7,1.3,3,3,3h64c1.7,0,3-1.3,3-3V74h15c2.8,0,5-2.2,5-5
	V9C96,6.2,93.8,4,91,4z M70,88H12V30h14v39c0,2.8,2.2,5,5,5h39V88z M90,68H32V10h58V68z"/>
</svg>
