<?xml version="1.0" encoding="utf-8"?>
<!-- Generator: Adobe Illustrator 22.0.0, SVG Export Plug-In . SVG Version: 6.00 Build 0)  -->
<svg version="1.1" id="Layer_1" xmlns="http://www.w3.org/2000/svg" xmlns:xlink="http://www.w3.org/1999/xlink" x="0px" y="0px"
	 viewBox="0 0 20 20" style="enable-background:new 0 0 20 20;" xml:space="preserve">
<g>
	<path d="M10,19.9c-0.1,0-0.1,0-0.2,0C4.7,18.2,1,13.4,1,8.4V3c0-0.2,0.1-0.3,0.2-0.4C3.6,1,5.8,0.1,10,0.1s6.4,0.9,8.8,2.5
		C18.9,2.7,19,2.8,19,3v5.4c0,5-3.7,9.8-8.8,11.5C10.1,19.9,10.1,19.9,10,19.9z M2,3.3v5.1c0,5.1,4,9.1,8,10.5c4-1.4,8-5.4,8-10.5
		V3.3c-2.2-1.4-4.2-2.2-8-2.2S4.2,1.9,2,3.3z"/>
	<path d="M11.6,12.7L11.6,12.7c-0.2,0-0.4-0.1-0.5-0.3L9,6.7l-1.6,3C7.4,9.9,7.2,10,7,10H4.5C4.2,10,4,9.8,4,9.5S4.2,9,4.5,9h2.2
		l2-3.7C8.7,5.1,8.9,5,9.1,5c0.2,0,0.4,0.1,0.4,0.3l2.1,5.6l0.7-1.6C12.4,9.1,12.6,9,12.8,9h2.7C15.8,9,16,9.2,16,9.5
		S15.8,10,15.5,10h-2.4L12,12.4C12,12.6,11.8,12.7,11.6,12.7z"/>
</g>
</svg>
