<?xml version="1.0" encoding="utf-8"?>
<!-- Generator: Adobe Illustrator 23.0.6, SVG Export Plug-In . SVG Version: 6.00 Build 0)  -->
<svg version="1.1" id="Layer_1" xmlns="http://www.w3.org/2000/svg" xmlns:xlink="http://www.w3.org/1999/xlink" x="0px" y="0px"
	 viewBox="0 0 100 100" style="enable-background:new 0 0 100 100;" xml:space="preserve">
<style type="text/css">
	.st0{fill:#192239;}
</style>
<title>Datepicker_New</title>
<desc>Created with Sketch.</desc>
<path class="st0" d="M97.1,11.4H77.3c0,0,0,0,0,0V3.3c0-1.4-1.1-2.5-2.5-2.5s-2.5,1.1-2.5,2.5v8.1c0,0,0,0,0,0H28.5c0,0,0,0,0,0V3.3
	c0-1.4-1.1-2.5-2.5-2.5s-2.5,1.1-2.5,2.5v8.1c0,0,0,0,0,0H3.8c-1.1,0-2,0.9-2,2v82.5c0,1.1,0.9,2,2,2h93.3c1.1,0,2-0.9,2-2V13.4
	C99.1,12.3,98.2,11.4,97.1,11.4z M70.9,39.1v15.5h-18V39.1H70.9z M93.7,54.6H75.9V39.1h17.8V54.6z M47.9,54.6h-18V39.1h18V54.6z
	 M24.9,54.6H7.2V39.1h17.8V54.6z M7.2,59.6h17.8v14.1H7.2V59.6z M29.9,59.6h18v14.1h-18V59.6z M47.9,78.7v13.8h-18V78.7H47.9z
	 M52.9,78.7h18v13.8h-18V78.7z M52.9,73.7V59.6h18v14.1H52.9z M75.9,59.6h17.8v14.1H75.9V59.6z M93.7,16.8v17.3H7.2V16.8H93.7z
	 M7.2,78.7h17.8v13.8H7.2V78.7z M75.9,92.5V78.7h17.8v13.8H75.9z"/>
</svg>
