<?xml version="1.0" encoding="UTF-8"?>
<svg width="18px" height="21px" viewBox="0 0 18 21" version="1.1" xmlns="http://www.w3.org/2000/svg" xmlns:xlink="http://www.w3.org/1999/xlink">
    <!-- Generator: Sketch 61 (89581) - https://sketch.com -->
    <title>DB Tmer Tasks</title>
    <desc>Created with Sketch.</desc>
    <g id="Page-2" stroke="none" stroke-width="1" fill="none" fill-rule="evenodd">
        <g id="DB-Tmer-Tasks" fill="#192239" fill-rule="nonzero">
            <g id="Group" transform="translate(0.000000, 0.249300)">
                <path d="M11.0540813,0.362745098 C11.3302236,0.362745098 11.5540813,0.586602723 11.5540813,0.862745098 C11.5540813,1.10820499 11.3772061,1.31235347 11.1439569,1.35468943 L11.0540813,1.3627451 L9.343,1.3627451 L9.34340284,3.51475093 C13.6341984,3.76850473 17.0526362,7.26503149 17.1824497,11.5880648 L17.1862745,11.8431373 C17.1862745,16.4509247 13.4509247,20.1862745 8.84313725,20.1862745 C4.23534978,20.1862745 0.5,16.4509247 0.5,11.8431373 C0.5,7.4029851 3.96850323,3.77294527 8.34383336,3.51469411 L8.343,1.3627451 L6.6022409,1.3627451 C6.32609852,1.3627451 6.1022409,1.13888747 6.1022409,0.862745098 C6.1022409,0.617285209 6.27911606,0.413136728 6.51236526,0.370800767 L6.6022409,0.362745098 L11.0540813,0.362745098 Z M8.84313725,4.5 C4.78763453,4.5 1.5,7.78763453 1.5,11.8431373 C1.5,15.89864 4.78763453,19.1862745 8.84313725,19.1862745 C12.89864,19.1862745 16.1862745,15.89864 16.1862745,11.8431373 C16.1862745,7.78763453 12.89864,4.5 8.84313725,4.5 Z M8.84313725,6.83139218 C9.08859714,6.83139218 9.29274563,7.00826734 9.33508159,7.24151654 L9.34313725,7.33139218 L9.34313725,11.8131849 C9.34313725,12.0893273 9.11927963,12.3131849 8.84313725,12.3131849 C8.59767737,12.3131849 8.39352888,12.1363097 8.35119292,11.9030605 L8.34313725,11.8131849 L8.34313725,7.33139218 C8.34313725,7.0552498 8.56699488,6.83139218 8.84313725,6.83139218 Z" id="Combined-Shape"></path>
            </g>
        </g>
    </g>
</svg>