<?xml version="1.0" encoding="UTF-8"?>
<svg width="79px" height="100px" viewBox="0 0 79 100" version="1.1" xmlns="http://www.w3.org/2000/svg" xmlns:xlink="http://www.w3.org/1999/xlink">
    <title>Combined Shape</title>
    <g id="Page-1" stroke="none" stroke-width="1" fill="none" fill-rule="evenodd">
        <g id="Artboard" transform="translate(-11.000000, 0.000000)" fill="#000000" fill-rule="nonzero">
            <path d="M57.55,5.95079541e-14 C60.1830549,5.95079541e-14 62.3310417,2.06751934 62.4452257,4.66076137 L62.45,4.87804878 L62.45,9.756 L86.95,9.75609756 C88.3030976,9.75609756 89.4,10.848086 89.4,12.195122 L89.4,24.3902439 C89.4,25.7372799 88.3030976,26.8292683 86.95,26.8292683 L82.05,26.829 L82.05,89.7560976 C82.05,95.4136487 77.4430101,100 71.76,100 L28.64,100 C22.9569899,100 18.35,95.4136487 18.35,89.7560976 L18.35,26.829 L13.45,26.8292683 C12.0969024,26.8292683 11,25.7372799 11,24.3902439 L11,12.195122 C11,10.848086 12.0969024,9.75609756 13.45,9.75609756 L37.95,9.756 L37.95,4.87804878 C37.95,2.25678959 40.0268232,0.118425406 42.6317348,0.00475287834 L42.85,5.95079541e-14 L57.55,5.95079541e-14 Z M76.905,27.0731707 L23.494,27.0731707 L23.495,89.7560976 C23.495,92.5123404 25.6818815,94.7600979 28.4225136,94.8735554 L28.64,94.8780488 L71.76,94.8780488 C74.5286459,94.8780488 76.7865183,92.7009642 76.9004864,89.9726096 L76.905,89.7560976 L76.905,27.0731707 Z M50.3225,33.8170238 C51.6886082,33.8170238 52.8060061,34.8771087 52.8899389,36.2160393 L52.895,36.3779994 L52.895,85.1584872 C52.895,86.572875 51.7432525,87.7194628 50.3225,87.7194628 C48.9563918,87.7194628 47.8389939,86.6593779 47.7550611,85.3204473 L47.75,85.1584872 L47.75,36.3779994 C47.75,34.9636116 48.9017475,33.8170238 50.3225,33.8170238 Z M67.4725,33.8170238 C68.8386082,33.8170238 69.9560061,34.8771087 70.0399389,36.2160393 L70.045,36.3779994 L70.045,85.1584872 C70.045,86.572875 68.8932525,87.7194628 67.4725,87.7194628 C66.1063918,87.7194628 64.9889939,86.6593779 64.9050611,85.3204473 L64.9,85.1584872 L64.9,36.3779994 C64.9,34.9636116 66.0517475,33.8170238 67.4725,33.8170238 Z M33.1725,33.8170238 C34.5386082,33.8170238 35.6560061,34.8771087 35.7399389,36.2160393 L35.745,36.3779994 L35.745,85.1584872 C35.745,86.572875 34.5932525,87.7194628 33.1725,87.7194628 C31.8063918,87.7194628 30.6889939,86.6593779 30.6050611,85.3204473 L30.6,85.1584872 L30.6,36.3779994 C30.6,34.9636116 31.7517475,33.8170238 33.1725,33.8170238 Z M40.372,14.633 L15.899,14.6331508 L15.899,21.950224 L84.499,21.950224 L84.499,14.6331508 L60.0271952,14.6339992 C60.0181418,14.6340972 60.0090767,14.6341463 60,14.6341463 L59.972,14.633 L40.4271952,14.6339992 C40.4181418,14.6340972 40.4090767,14.6341463 40.4,14.6341463 L40.372,14.633 Z M57.55,4.87804878 L42.85,4.87804878 L42.85,9.756 L57.55,9.756 L57.55,4.87804878 Z" id="Combined-Shape"></path>
        </g>
    </g>
</svg>