<?xml version="1.0" encoding="utf-8"?>
<!-- Generator: Adobe Illustrator 23.0.6, SVG Export Plug-In . SVG Version: 6.00 Build 0)  -->
<svg version="1.1" id="Layer_1" xmlns="http://www.w3.org/2000/svg" xmlns:xlink="http://www.w3.org/1999/xlink" x="0px" y="0px"
	 viewBox="0 0 100 100" style="enable-background:new 0 0 100 100;" xml:space="preserve">
<style type="text/css">
	.st0{fill:#192239;}
</style>
<title>Disability_New</title>
<desc>Created with Sketch.</desc>
<g>
	<path class="st0" d="M45.4,39.4c-1.7,0-3.4,0.3-5,0.9V29.6l0-0.4c-0.4-2.5-2.5-4.4-5.1-4.4H28c-1.4,0-2.5,1.1-2.5,2.5
		s1.1,2.5,2.5,2.5h7.4c0,0,0.1,0,0.1,0V43c0,0.1,0,0.1,0,0.2c-0.2,0.2-0.5,0.4-0.7,0.7c-5.9,5.9-5.9,15.5,0,21.4
		c2.8,2.9,6.6,4.4,10.7,4.4c4,0,7.8-1.6,10.7-4.4c2.8-2.8,4.3-6.5,4.4-10.2h4.3c0.2,0,0.3,0.2,0.3,0.4v9.7h7c1.4,0,2.5-1.1,2.5-2.5
		s-1.1-2.5-2.5-2.5h-2v-4.7c0-3-2.4-5.4-5.3-5.4h-5c-0.7-2.3-1.9-4.4-3.7-6.2C53.3,41,49.5,39.4,45.4,39.4z M52.6,61.8
		c-1.9,1.9-4.4,3-7.1,3c-2.7,0-5.2-1.1-7.1-3l0,0c-3.9-4-3.9-10.4,0-14.3c1.9-1.9,4.4-3,7.1-3c2.7,0,5.2,1.1,7.1,3
		C56.5,51.4,56.5,57.8,52.6,61.8z"/>
	<path class="st0" d="M93.9,13.1C82.4,5.4,71.1,0.7,50.3,0.7c-20.8,0-32.2,4.7-43.7,12.4c-0.7,0.5-1.1,1.2-1.1,2.1V42
		c0,25.2,18.1,48.7,44,57.2c0.3,0.1,0.5,0.1,0.8,0.1s0.5,0,0.8-0.1c25.9-8.5,44-32,44-57.2V15.1C95.1,14.3,94.6,13.5,93.9,13.1z
		 M90.1,42c0,22.8-16.3,44.2-39.8,52.2C26.8,86.2,10.5,64.8,10.5,42V16.5C21.1,9.6,31.3,5.7,50.3,5.7c19,0,29.2,3.9,39.8,10.8V42z"
		/>
</g>
</svg>
