<?xml version="1.0" encoding="utf-8"?>
<!-- Generator: Adobe Illustrator 23.0.6, SVG Export Plug-In . SVG Version: 6.00 Build 0)  -->
<svg version="1.1" id="Layer_1" xmlns="http://www.w3.org/2000/svg" xmlns:xlink="http://www.w3.org/1999/xlink" x="0px" y="0px"
	 viewBox="0 0 100 100" style="enable-background:new 0 0 100 100;" xml:space="preserve">
<style type="text/css">
	.st0{fill:#192239;}
</style>
<title>Edit</title>
<desc>Created with Sketch.</desc>
<path class="st0" d="M97.9,24.2l-22-22c-1-1-2.6-1-3.6,0L6.3,68.3c-0.6,0.6-0.8,1.3-0.7,2v20.9L3,93.8c-1,1-1,2.6,0,3.6
	c0.5,0.5,1.1,0.7,1.8,0.7s1.3-0.2,1.8-0.7l2.6-2.6h21c1,0,1.9-0.6,2.3-1.5l65.5-65.5C98.9,26.8,98.9,25.2,97.9,24.2z M58.9,22.8
	l7.5,7.5c-0.2,0.1-0.4,0.2-0.5,0.4L19.1,77.5l-7.4-7.4L58.9,22.8z M10.6,89.7V76.2l13.5,13.5H10.6z M30.1,88.5l-7.4-7.4l46.8-46.8
	c0.2-0.2,0.3-0.3,0.4-0.5l7.1,7.1c0.1,0.1,0.3,0.3,0.5,0.4L30.1,88.5z M80.9,37.8c-0.1-0.2-0.2-0.3-0.4-0.5l-18-18L74.1,7.6L92.6,26
	L80.9,37.8z"/>
</svg>
