<?xml version="1.0" encoding="utf-8"?>
<!-- Generator: Adobe Illustrator 23.0.6, SVG Export Plug-In . SVG Version: 6.00 Build 0)  -->
<svg version="1.1" id="Layer_1" xmlns="http://www.w3.org/2000/svg" xmlns:xlink="http://www.w3.org/1999/xlink" x="0px" y="0px"
	 viewBox="0 0 100 100" style="enable-background:new 0 0 100 100;" xml:space="preserve">
<style type="text/css">
	.st0{fill-rule:evenodd;clip-rule:evenodd;fill:#192239;}
</style>
<title>Education_New</title>
<desc>Created with Sketch.</desc>
<path class="st0" d="M98,37.4L51.7,17.3c-0.6-0.3-1.4-0.3-2,0L3.5,37.4C2.6,37.8,2,38.7,2,39.7s0.6,1.9,1.5,2.3l12.6,5.5v15
	c-0.6,0.6-1,1.5-1,2.4c0,1.9,1.5,3.5,3.5,3.5c1.9,0,3.5-1.6,3.5-3.5c0-0.9-0.4-1.8-1-2.4V49.7l4.9,2.1v24l1.3,0.7
	c7.6,4.2,15.5,6.4,23.4,6.4c7.9,0,15.8-2.1,23.4-6.4l1.3-0.7V51.9L98,42c0.9-0.4,1.5-1.3,1.5-2.3S98.9,37.8,98,37.4z M70.3,72.9
	c-12.9,6.7-26.4,6.7-39.3,0V54l18.8,8.2c0.3,0.1,0.7,0.2,1,0.2s0.7-0.1,1-0.2l18.6-8.1V72.9z M50.7,57.2l-40-17.4l40-17.4l40,17.4
	L50.7,57.2z"/>
</svg>
