<?xml version="1.0" encoding="utf-8"?>
<!-- Generator: Adobe Illustrator 23.0.6, SVG Export Plug-In . SVG Version: 6.00 Build 0)  -->
<svg version="1.1" id="Layer_1" xmlns="http://www.w3.org/2000/svg" xmlns:xlink="http://www.w3.org/1999/xlink" x="0px" y="0px"
	 viewBox="0 0 100 100" style="enable-background:new 0 0 100 100;" xml:space="preserve">
<style type="text/css">
	.st0{fill:#192239;}
</style>
<title>End_New</title>
<desc>Created with Sketch.</desc>
<g>
	<path class="st0" d="M51.9,50c0-0.8-0.3-1.6-0.9-2.1L8.5,5.5c-1.2-1.2-3.1-1.2-4.2,0c-1.2,1.2-1.2,3.1,0,4.2L44.6,50L4.3,90.3
		c-1.2,1.2-1.2,3.1,0,4.2c0.6,0.6,1.4,0.9,2.1,0.9s1.5-0.3,2.1-0.9L51,52.1C51.5,51.6,51.9,50.8,51.9,50z"/>
	<path class="st0" d="M98,47.9L55.5,5.5c-1.2-1.2-3.1-1.2-4.2,0c-1.2,1.2-1.2,3.1,0,4.2L91.6,50L51.3,90.3c-1.2,1.2-1.2,3.1,0,4.2
		c0.6,0.6,1.4,0.9,2.1,0.9s1.5-0.3,2.1-0.9L98,52.1C99.1,50.9,99.1,49.1,98,47.9z"/>
</g>
</svg>
