<?xml version="1.0" encoding="utf-8"?>
<!-- Generator: Adobe Illustrator 22.1.0, SVG Export Plug-In . SVG Version: 6.00 Build 0)  -->
<svg version="1.1" id="Layer_1" xmlns="http://www.w3.org/2000/svg" xmlns:xlink="http://www.w3.org/1999/xlink" x="0px" y="0px"
	 viewBox="0 0 10 10" style="enable-background:new 0 0 10 10;" xml:space="preserve">
<style type="text/css">
	.st0{fill:#DA1C5C;}
</style>
<path class="st0" d="M9.5,2h-3C6.2,2,6,2.2,6,2.5S6.2,3,6.5,3h1.7L5.4,5.8L4.2,4.6C4,4.4,3.7,4.4,3.5,4.6L0.1,8
	c-0.2,0.2-0.2,0.5,0,0.7c0.1,0.1,0.3,0.1,0.4,0.1s0.2,0,0.4-0.1l3-3l1.2,1.2C5.3,7,5.6,7,5.8,6.9L9,3.6v1.9C9,5.8,9.2,6,9.5,6
	S10,5.8,10,5.5v-3C10,2.2,9.8,2,9.5,2z"/>
</svg>
