<?xml version="1.0" encoding="utf-8"?>
<!-- Generator: Adobe Illustrator 23.0.6, SVG Export Plug-In . SVG Version: 6.00 Build 0)  -->
<svg version="1.1" id="Layer_1" xmlns="http://www.w3.org/2000/svg" xmlns:xlink="http://www.w3.org/1999/xlink" x="0px" y="0px"
	 viewBox="0 0 100 100" style="enable-background:new 0 0 100 100;" xml:space="preserve">
<style type="text/css">
	.st0{fill:#192239;}
</style>
<title>Family_New</title>
<desc>Created with Sketch.</desc>
<path class="st0" d="M84.3,44.2c3-4.4,4.7-9.6,4.7-14.7c0-11.8-9.5-21.3-21.3-21.3c-11.7,0-21.3,9.6-21.3,21.3
	c0,5,1.7,10.3,4.7,14.7c-3.2,1.6-6.1,3.9-8.3,6.6c-1.7-2.6-4-4.7-6.7-6.2c1.9-3,3-6.6,3-10c0-8.6-7-15.7-15.6-15.7
	C15,18.9,8,26,8,34.6c0,3.4,1.1,7,3.1,10.1C5.1,48,1.3,54.3,1.3,61.2v15.4c0,1.3,1.1,2.4,2.4,2.4s2.4-1.1,2.4-2.4V61.2
	c0-5.5,3.2-10.5,8.1-12.8c2.6,2.4,5.8,3.9,9.4,3.9c3.6,0,6.8-1.5,9.3-3.8c3,1.4,5.4,3.9,6.8,7c-1.9,3.7-3,7.8-3,12.1v22
	c0,1.4,1.1,2.5,2.5,2.5s2.5-1.1,2.5-2.5v-22c0-8.5,5.1-16.1,12.8-19.5c3.6,3.4,8.1,5.7,13.2,5.7c5.1,0,9.6-2.2,13.2-5.7
	c7.7,3.3,12.8,10.9,12.8,19.5v22c0,1.4,1.1,2.5,2.5,2.5s2.5-1.1,2.5-2.5v-22C98.7,57.6,93,48.6,84.3,44.2z M13,34.6
	c0-5.9,4.8-10.7,10.6-10.7c5.9,0,10.6,4.8,10.6,10.7c0,3.2-1.4,6.7-3.7,9.2c-0.1,0.1-0.1,0.1-0.2,0.2c-1.8,2-4.2,3.3-6.8,3.3
	C17.7,47.3,13,40.4,13,34.6z M67.7,48.8c-9,0-16.3-10.5-16.3-19.3c0-9,7.3-16.3,16.3-16.3c9,0,16.3,7.3,16.3,16.3
	C84,38.3,76.8,48.8,67.7,48.8z"/>
</svg>
