<?xml version="1.0" encoding="utf-8"?>
<!-- Generator: Adobe Illustrator 23.0.6, SVG Export Plug-In . SVG Version: 6.00 Build 0)  -->
<svg version="1.1" id="Layer_1" xmlns="http://www.w3.org/2000/svg" xmlns:xlink="http://www.w3.org/1999/xlink" x="0px" y="0px"
	 viewBox="0 0 100 100" style="enable-background:new 0 0 100 100;" xml:space="preserve">
<style type="text/css">
	.st0{fill:#192239;}
</style>
<title>File</title>
<desc>Created with Sketch.</desc>
<path class="st0" d="M92.3,41h-3.8c-1.3,0-2.4-1.1-2.4-2.3v-9.5c0-3.9-3.2-7-7-7H46.2c-0.9,0-1.7-0.5-2.1-1.2l-2.4-4.5
	c-1.2-2.3-3.6-3.7-6.2-3.7H7.7c-3.9,0-7.1,3.2-7.1,7.1v61.6c0,3.9,3.2,7,7.1,7h72.8c3,0,5.6-1.9,6.6-4.7l11.8-33.2
	c0.3-0.8,0.4-1.6,0.4-2.4C99.3,44.2,96.2,41,92.3,41z M7.7,17.4h27.8c0.9,0,1.7,0.5,2.1,1.2l2.4,4.5c1.2,2.3,3.6,3.7,6.2,3.7h32.9
	c1.3,0,2.4,1.1,2.4,2.3v9.5c0,0.8,0.1,1.6,0.4,2.3H20c-3,0-5.6,1.9-6.6,4.6l-8,22.2V19.7C5.4,18.4,6.4,17.4,7.7,17.4z M94.5,48.9
	L82.7,82.1c-0.3,0.9-1.2,1.6-2.2,1.6H7.7c-1.2,0-2.2-0.9-2.3-2.1l12.4-34.3c0.3-0.9,1.2-1.5,2.2-1.5h67.6v-0.1
	c0.3,0,0.6,0.1,0.9,0.1h3.8c1.3,0,2.4,1.1,2.4,2.4C94.6,48.4,94.6,48.6,94.5,48.9z"/>
</svg>
