<?xml version="1.0" encoding="utf-8"?>
<!-- Generator: Adobe Illustrator 23.0.6, SVG Export Plug-In . SVG Version: 6.00 Build 0)  -->
<svg version="1.1" id="Layer_1" xmlns="http://www.w3.org/2000/svg" xmlns:xlink="http://www.w3.org/1999/xlink" x="0px" y="0px"
	 viewBox="0 0 100 100" style="enable-background:new 0 0 100 100;" xml:space="preserve">
<style type="text/css">
	.st0{fill:#192239;}
</style>
<title>Flower_New</title>
<desc>Created with Sketch.</desc>
<path class="st0" d="M97.6,57.1l-17-17c-2.7-2.7-6.4-4.3-10.3-4.3c-2.7,0-5.4,0.8-7.6,2.2c-3.7-3.4-8-5.9-12.7-7.4
	c4-0.8,7.7-2.8,10.6-5.7c3.9-4,6.1-9.2,6.1-14.8c0-1.4-1.1-2.5-2.5-2.5c-5.6,0-10.8,2.2-14.8,6.1c-3.9,3.9-6.1,9.2-6.1,14.8
	c0,0.2,0,0.3,0.1,0.5c-1.7-0.2-3.5-0.4-5.3-0.4c-9.8,0-19.1,3.8-26,10.8c-7,7-10.8,16.2-10.8,26c0,9.8,3.8,19.1,10.8,26
	c0.5,0.5,1.1,0.7,1.8,0.7c0.6,0,1.3-0.2,1.8-0.7c1-1,1-2.6,0-3.5c-6-6-9.3-14-9.3-22.5C6.4,57,9.7,49,15.7,43
	c4.2-4.2,9.3-7,14.8-8.4c-1.9,3.2-2.9,6.8-2.9,10.5c0,5.6,2.2,10.8,6.1,14.8c0.5,0.5,1.1,0.7,1.8,0.7s1.3-0.3,1.8-0.7
	c3.9-3.9,6.1-9.2,6.1-14.8c0-4.1-1.2-8.1-3.4-11.4c7,0.4,13.6,3.1,19,7.7c-4.5,5.7-4.1,14,1.1,19.2l17,17c0.5,0.5,1.1,0.7,1.8,0.7
	s1.3-0.2,1.8-0.7c2.7-2.7,4.2-6.4,4.2-10.3c0-0.9-0.1-1.8-0.3-2.7c4.6,0.9,9.5-0.5,13-4c0.5-0.5,0.7-1.1,0.7-1.8
	S98.1,57.6,97.6,57.1z M53,17.3c2.4-2.3,5.3-3.9,8.5-4.4c-0.6,3.2-2.1,6.1-4.4,8.5c-2.4,2.3-5.3,3.9-8.5,4.4
	C49.2,22.6,50.7,19.7,53,17.3z M35.5,54.3c-1.9-2.7-2.9-5.8-2.9-9.1c0-3.3,1-6.5,2.9-9.1c1.9,2.6,2.9,5.8,2.9,9.1
	C38.4,48.5,37.4,51.7,35.5,54.3z M80.6,57.1c-1-1-2.6-1-3.5,0c-0.5,0.5-0.7,1.1-0.7,1.8s0.2,1.3,0.7,1.8c1.8,1.8,2.8,4.2,2.8,6.7
	c0,1.7-0.4,3.3-1.2,4.7l-15-15c-3.7-3.7-3.7-9.7,0-13.4c1.8-1.8,4.2-2.8,6.7-2.8s4.9,1,6.7,2.8l15,15C88.4,60.7,83.7,60.2,80.6,57.1
	z"/>
</svg>
