<?xml version="1.0" encoding="utf-8"?>
<!-- Generator: Adobe Illustrator 23.0.6, SVG Export Plug-In . SVG Version: 6.00 Build 0)  -->
<svg version="1.1" id="Layer_1" xmlns="http://www.w3.org/2000/svg" xmlns:xlink="http://www.w3.org/1999/xlink" x="0px" y="0px"
	 viewBox="0 0 100 100" style="enable-background:new 0 0 100 100;" xml:space="preserve">
<style type="text/css">
	.st0{fill:#192239;}
</style>
<title>Graph_New</title>
<desc>Created with Sketch.</desc>
<g id="Graph_New">
	<g id="Group-111" transform="translate(3.000000, 17.000000)">
		<path class="st0" d="M55.1,66.4c-1.4,0-2.5-1.1-2.5-2.5V14.7H41.7v49.2c0,1.4-1.1,2.5-2.5,2.5s-2.5-1.1-2.5-2.5V12.2
			c0-1.4,1.1-2.5,2.5-2.5h15.8c1.4,0,2.5,1.1,2.5,2.5v51.7C57.6,65.3,56.5,66.4,55.1,66.4z"/>
		<path class="st0" d="M26.7,66.4c-1.4,0-2.5-1.1-2.5-2.5V26.6H13.4v37.3c0,1.4-1.1,2.5-2.5,2.5s-2.5-1.1-2.5-2.5V24.1
			c0-1.4,1.1-2.5,2.5-2.5h15.8c1.4,0,2.5,1.1,2.5,2.5v39.8C29.2,65.3,28.1,66.4,26.7,66.4z"/>
		<path class="st0" d="M83.4,66.4c-1.4,0-2.5-1.1-2.5-2.5V2.8H70.1v61.1c0,1.4-1.1,2.5-2.5,2.5s-2.5-1.1-2.5-2.5V0.3
			c0-1.4,1.1-2.5,2.5-2.5h15.8c1.4,0,2.5,1.1,2.5,2.5v63.6C85.9,65.3,84.8,66.4,83.4,66.4z"/>
		<path class="st0" d="M93.8,66.4H0.5c-1.4,0-2.5-1.1-2.5-2.5s1.1-2.5,2.5-2.5h93.3c1.4,0,2.5,1.1,2.5,2.5S95.2,66.4,93.8,66.4z"/>
	</g>
</g>
</svg>
