<?xml version="1.0" encoding="utf-8"?>
<!-- Generator: Adobe Illustrator 23.0.6, SVG Export Plug-In . SVG Version: 6.00 Build 0)  -->
<svg version="1.1" id="Layer_1" xmlns="http://www.w3.org/2000/svg" xmlns:xlink="http://www.w3.org/1999/xlink" x="0px" y="0px"
	 viewBox="0 0 100 100" style="enable-background:new 0 0 100 100;" xml:space="preserve">
<style type="text/css">
	.st0{enable-background:new    ;}
	.st1{fill:#192239;}
	.st2{fill-rule:evenodd;clip-rule:evenodd;fill:#192239;}
</style>
<title>Help</title>
<desc>Created with Sketch.</desc>
<g class="st0">
	<path class="st1" d="M48.3,60.5c0-2.9,0.5-5.3,1.5-7.3c1-2,2.5-4.2,4.4-6.7c1.6-2,2.7-3.7,3.5-5.1s1.1-2.9,1.1-4.6
		c0-2-0.7-3.5-2.1-4.7c-1.4-1.1-3.3-1.7-5.7-1.7c-2.2,0-4.4,0.5-6.6,1.4c-2.3,0.9-4.5,2.3-6.6,4.1l-2.2-4.4c2-1.8,4.4-3.3,7.3-4.4
		c2.9-1.1,5.7-1.6,8.5-1.6c3.9,0,7.1,1,9.6,3c2.4,2,3.7,4.6,3.7,7.8c0,2.4-0.5,4.6-1.6,6.4c-1.1,1.8-2.7,3.9-4.8,6.3
		c-2,2.3-3.5,4.2-4.6,6c-1.1,1.7-1.7,3.7-1.9,6l-0.1,1.2h-3.3V60.5z M46.5,74.9v-7.1h7.1v7.1H46.5z"/>
</g>
<path class="st2" d="M50.5,1.4C23.9,1.4,2.3,23,2.3,49.6s21.5,48.1,48.1,48.1s48.1-21.5,48.1-48.1C98.6,23,77,1.4,50.5,1.4z
	 M50.5,92.3c-23.6,0-42.8-19.2-42.8-42.8S26.9,6.8,50.5,6.8C74,6.8,93.2,26,93.2,49.6S74,92.3,50.5,92.3z"/>
</svg>
