<?xml version="1.0" encoding="utf-8"?>
<!-- Generator: Adobe Illustrator 23.0.6, SVG Export Plug-In . SVG Version: 6.00 Build 0)  -->
<svg version="1.1" id="Layer_1" xmlns="http://www.w3.org/2000/svg" xmlns:xlink="http://www.w3.org/1999/xlink" x="0px" y="0px"
	 viewBox="0 0 100 100" style="enable-background:new 0 0 100 100;" xml:space="preserve">
<style type="text/css">
	.st0{fill:#192239;}
</style>
<title>Import</title>
<desc>Created with Sketch.</desc>
<g>
	<path class="st0" d="M66.2,1H16.5c-3,0-5.5,2.5-5.5,5.5c0,19.9,0,35.4,0,46.5h5.5V6.5h44.1v16.5c0,3,2.5,5.5,5.5,5.5h16.5v65.6
		H16.5V78H11v16.1c0,3,2.5,5.5,5.5,5.5h66.2c3,0,5.5-2.5,5.5-5.5V23.1L66.2,1z M66.2,23.1V8.8l14.3,14.3H66.2z"/>
	<path class="st0" d="M17,68.5h33.3l-6.9,6.9c-1.2,1.2-1.2,3.1,0,4.2c0.6,0.6,1.4,0.9,2.1,0.9s1.5-0.3,2.1-0.9l12-12
		c1.2-1.2,1.2-3.1,0-4.2l-12-12c-1.2-1.2-3.1-1.2-4.2,0c-1.2,1.2-1.2,3.1,0,4.2l6.9,6.9H17V68.5z"/>
</g>
</svg>
