<?xml version="1.0" encoding="utf-8"?>
<!-- Generator: Adobe Illustrator 23.0.6, SVG Export Plug-In . SVG Version: 6.00 Build 0)  -->
<svg version="1.1" id="Layer_1" xmlns="http://www.w3.org/2000/svg" xmlns:xlink="http://www.w3.org/1999/xlink" x="0px" y="0px"
	 viewBox="0 0 100 100" style="enable-background:new 0 0 100 100;" xml:space="preserve">
<style type="text/css">
	.st0{fill:#192239;}
</style>
<title>LifeInsurance_New</title>
<desc>Created with Sketch.</desc>
<g>
	<path class="st0" d="M93.9,12.8C82.4,5.2,71.1,0.5,50.3,0.5c-20.8,0-32.2,4.7-43.7,12.4c-0.7,0.5-1.1,1.2-1.1,2.1v26.8
		c0,25.2,18.1,48.7,44,57.2c0.3,0.1,0.5,0.1,0.8,0.1s0.5,0,0.8-0.1c25.9-8.5,44-32,44-57.2V14.9C95.1,14.1,94.6,13.3,93.9,12.8z
		 M90.1,41.7c0,22.8-16.3,44.2-39.8,52.2c-23.5-8.1-39.8-29.4-39.8-52.2V16.3C21.1,9.4,31.3,5.5,50.3,5.5c19,0,29.2,3.9,39.8,10.8
		V41.7z"/>
	<path class="st0" d="M37.6,25.8c-8.4,0-15.2,6.8-15.2,15.3c0,16.4,25.4,32,27.1,32.6c0.3,0.1,0.5,0.1,0.8,0.1c0.3,0,0.5,0,0.8-0.1
		c1.7-0.6,27.1-16.2,27.1-32.6c0-8.4-6.8-15.3-15.2-15.3c-5.3,0-10,2.7-12.7,6.9C47.5,28.6,42.9,25.8,37.6,25.8z M52.8,41.1
		c0-5.7,4.6-10.3,10.2-10.3c5.6,0,10.2,4.6,10.2,10.3c0,11.8-18.3,24.6-22.9,27.4c-4.6-2.8-22.9-15.6-22.9-27.4
		c0-5.7,4.6-10.3,10.2-10.3c5.6,0,10.2,4.6,10.2,10.3c0,1.4,1.1,2.5,2.5,2.5C51.6,43.6,52.8,42.4,52.8,41.1z"/>
</g>
</svg>
