<?xml version="1.0" encoding="utf-8"?>
<!-- Generator: Adobe Illustrator 24.1.2, SVG Export Plug-In . SVG Version: 6.00 Build 0)  -->
<svg version="1.1" id="Layer_1" xmlns="http://www.w3.org/2000/svg" xmlns:xlink="http://www.w3.org/1999/xlink" x="0px" y="0px"
	 viewBox="0 0 13.9 20.4" style="enable-background:new 0 0 13.9 20.4;" xml:space="preserve">
<style type="text/css">
	.st0{fill:#192239;}
</style>
<g>
	<path class="st0" d="M9,0.3C8.3,0.1,7.6,0,7,0C3.1,0,0,3.1,0,6.9c0,0.7,0.1,1.4,0.3,2c0.3,0.9,0.8,1.9,1.3,2.7
		c0.6,1.2,1.4,2.5,2.1,3.8c1.5,2.5,2.9,4.8,2.9,4.8c0.1,0.2,0.4,0.3,0.6,0.1c0.1,0,0.1-0.1,0.1-0.1c0,0,1.4-2.3,2.9-4.8
		c0.7-1.3,1.5-2.6,2.1-3.8c0.5-0.9,0.9-1.8,1.3-2.7C14.7,5.3,12.6,1.4,9,0.3z M12.8,8.7c-0.3,0.9-0.7,1.7-1.2,2.6
		c-0.6,1.1-1.4,2.5-2.1,3.7c-1.3,2.2-2.2,3.6-2.5,4.1c-0.3-0.5-1.2-1.9-2.5-4.1c-0.7-1.3-1.5-2.6-2.1-3.7c-0.5-0.8-0.9-1.7-1.2-2.6
		C0.2,5.5,2.1,2.1,5.3,1.2C5.8,1,6.4,0.9,7,0.9c3.3,0,6,2.7,6,6C13,7.5,12.9,8.1,12.8,8.7z"/>
	<path class="st0" d="M7,3.7C5.2,3.7,3.7,5.2,3.7,7s1.5,3.2,3.2,3.2s3.2-1.5,3.2-3.2C10.2,5.2,8.8,3.7,7,3.7z M7,9.3
		c-1.3,0-2.3-1-2.3-2.3c0-1.3,1-2.3,2.3-2.3c0,0,0,0,0,0v0c1.3,0,2.3,1,2.3,2.3S8.2,9.3,7,9.3z"/>
</g>
</svg>
