<?xml version="1.0" encoding="utf-8"?>
<!-- Generator: Adobe Illustrator 23.0.6, SVG Export Plug-In . SVG Version: 6.00 Build 0)  -->
<svg version="1.1" id="Layer_1" xmlns="http://www.w3.org/2000/svg" xmlns:xlink="http://www.w3.org/1999/xlink" x="0px" y="0px"
	 viewBox="0 0 100 100" style="enable-background:new 0 0 100 100;" xml:space="preserve">
<style type="text/css">
	.st0{fill:#192239;}
</style>
<title>Locked_New</title>
<desc>Created with Sketch.</desc>
<g>
	<path class="st0" d="M86,42.2h-5.8c0,0,0,0,0,0v-3.6c0-16-12.9-29.1-28.8-29.1s-28.8,13-28.8,29.1v3.6c0,0,0,0,0,0H14
		c-1.1,0-2,0.9-2,2v52.4c0,1.3,1.1,2.4,2.4,2.4h71.2c1.3,0,2.4-1.1,2.4-2.4V44.2C88,43.1,87.1,42.2,86,42.2z M27.6,42.2v-3.6
		c0-13.3,10.7-24.1,23.8-24.1s23.8,10.8,23.8,24.1v3.6c0,0,0,0,0,0L27.6,42.2C27.6,42.2,27.6,42.2,27.6,42.2z M83,93.9H17V47.2h66
		V93.9z"/>
	<path class="st0" d="M47,72.8V83c0,1.4,1.1,2.5,2.5,2.5S52,84.4,52,83v-9.8c3.5-0.9,6.1-4.1,6.1-7.9c0-4.5-3.6-8.1-8.1-8.1
		c-4.5,0-8.1,3.6-8.1,8.1C42,68.7,44.1,71.6,47,72.8z M50.1,62.3c1.7,0,3.1,1.4,3.1,3.1c0,1.7-1.4,3.1-3.1,3.1
		c-1.7,0-3.1-1.4-3.1-3.1C47,63.6,48.4,62.3,50.1,62.3z"/>
</g>
</svg>
