<?xml version="1.0" encoding="UTF-8"?>
<svg width="22px" height="20px" viewBox="0 0 22 20" version="1.1" xmlns="http://www.w3.org/2000/svg" xmlns:xlink="http://www.w3.org/1999/xlink">
    <!-- Generator: Sketch 61 (89581) - https://sketch.com -->
    <title>Group 2</title>
    <desc>Created with Sketch.</desc>
    <g id="Page-2" stroke="none" stroke-width="1" fill="none" fill-rule="evenodd">
        <g id="Group-2">
            <g id="Group" fill="#192239" fill-rule="nonzero">
                <path d="M20.3325662,11.3170311 C20.8629248,11.3170311 21.2928654,11.7469717 21.2928654,12.2773303 L21.2928654,12.2773303 L21.2928654,18.721519 C21.2928654,19.2518776 20.8629248,19.6818182 20.3325662,19.6818182 L20.3325662,19.6818182 L1.46029919,19.6818182 C0.929940594,19.6818182 0.5,19.2518776 0.5,18.721519 L0.5,18.721519 L0.5,12.2773303 C0.5,11.7469717 0.929940594,11.3170311 1.46029919,11.3170311 L1.46029919,11.3170311 Z M20.292,12.3170311 L1.5,12.3170311 L1.5,18.6810311 L20.292,18.6810311 L20.292,12.3170311 Z M5.71806674,13.6355752 C5.96352663,13.6355752 6.16767511,13.8124503 6.21001107,14.0456995 L6.21806674,14.1355752 L6.21806674,16.8632741 C6.21806674,17.1394165 5.99420912,17.3632741 5.71806674,17.3632741 C5.47260685,17.3632741 5.26845837,17.1863989 5.22612241,16.9531497 L5.21806674,16.8632741 L5.21806674,14.1355752 C5.21806674,13.8594328 5.44192437,13.6355752 5.71806674,13.6355752 Z M8.01956272,13.6355752 C8.2650226,13.6355752 8.46917109,13.8124503 8.51150705,14.0456995 L8.51956272,14.1355752 L8.51956272,16.8632741 C8.51956272,17.1394165 8.29570509,17.3632741 8.01956272,17.3632741 C7.77410283,17.3632741 7.56995435,17.1863989 7.52761839,16.9531497 L7.51956272,16.8632741 L7.51956272,14.1355752 C7.51956272,13.8594328 7.74342034,13.6355752 8.01956272,13.6355752 Z M10.3210587,13.6355752 C10.5665186,13.6355752 10.7706671,13.8124503 10.813003,14.0456995 L10.8210587,14.1355752 L10.8210587,16.8632741 C10.8210587,17.1394165 10.5972011,17.3632741 10.3210587,17.3632741 C10.0755988,17.3632741 9.87145032,17.1863989 9.82911436,16.9531497 L9.82105869,16.8632741 L9.82105869,14.1355752 C9.82105869,13.8594328 10.0449163,13.6355752 10.3210587,13.6355752 Z M3.41657077,13.6355752 C3.66203066,13.6355752 3.86617914,13.8124503 3.9085151,14.0456995 L3.91657077,14.1355752 L3.91657077,16.8632741 C3.91657077,17.1394165 3.69271315,17.3632741 3.41657077,17.3632741 C3.17111088,17.3632741 2.9669624,17.1863989 2.92462644,16.9531497 L2.91657077,16.8632741 L2.91657077,14.1355752 C2.91657077,13.8594328 3.1404284,13.6355752 3.41657077,13.6355752 Z M17.6858458,14.5902698 C18.1526503,14.5902698 18.5310702,14.9686896 18.5310702,15.4354942 C18.5310702,15.9022987 18.1526503,16.2807186 17.6858458,16.2807186 C17.2190413,16.2807186 16.8406214,15.9022987 16.8406214,15.4354942 C16.8406214,14.9686896 17.2190413,14.5902698 17.6858458,14.5902698 Z M15.1542002,14.5902698 C15.6210048,14.5902698 15.9994246,14.9686896 15.9994246,15.4354942 C15.9994246,15.9022987 15.6210048,16.2807186 15.1542002,16.2807186 C14.6873957,16.2807186 14.3089758,15.9022987 14.3089758,15.4354942 C14.3089758,14.9686896 14.6873957,14.5902698 15.1542002,14.5902698 Z M20.3325662,0.5 C20.8629248,0.5 21.2928654,0.929940594 21.2928654,1.46029919 L21.2928654,1.46029919 L21.2928654,7.90448792 C21.2928654,8.43484652 20.8629248,8.86478711 20.3325662,8.86478711 L20.3325662,8.86478711 L1.46029919,8.86478711 C0.929940594,8.86478711 0.5,8.43484652 0.5,7.90448792 L0.5,7.90448792 L0.5,1.46029919 C0.5,0.929940594 0.929940594,0.5 1.46029919,0.5 L1.46029919,0.5 Z M20.292,1.5 L1.5,1.5 L1.5,7.864 L20.292,7.864 L20.292,1.5 Z M5.71806674,2.81854409 C5.96352663,2.81854409 6.16767511,2.99541925 6.21001107,3.22866846 L6.21806674,3.31854409 L6.21806674,6.04624302 C6.21806674,6.3223854 5.99420912,6.54624302 5.71806674,6.54624302 C5.47260685,6.54624302 5.26845837,6.36936786 5.22612241,6.13611865 L5.21806674,6.04624302 L5.21806674,3.31854409 C5.21806674,3.04240172 5.44192437,2.81854409 5.71806674,2.81854409 Z M8.01956272,2.81854409 C8.2650226,2.81854409 8.46917109,2.99541925 8.51150705,3.22866846 L8.51956272,3.31854409 L8.51956272,6.04624302 C8.51956272,6.3223854 8.29570509,6.54624302 8.01956272,6.54624302 C7.77410283,6.54624302 7.56995435,6.36936786 7.52761839,6.13611865 L7.51956272,6.04624302 L7.51956272,3.31854409 C7.51956272,3.04240172 7.74342034,2.81854409 8.01956272,2.81854409 Z M10.3210587,2.81854409 C10.5665186,2.81854409 10.7706671,2.99541925 10.813003,3.22866846 L10.8210587,3.31854409 L10.8210587,6.04624302 C10.8210587,6.3223854 10.5972011,6.54624302 10.3210587,6.54624302 C10.0755988,6.54624302 9.87145032,6.36936786 9.82911436,6.13611865 L9.82105869,6.04624302 L9.82105869,3.31854409 C9.82105869,3.04240172 10.0449163,2.81854409 10.3210587,2.81854409 Z M3.41657077,2.81854409 C3.66203066,2.81854409 3.86617914,2.99541925 3.9085151,3.22866846 L3.91657077,3.31854409 L3.91657077,6.04624302 C3.91657077,6.3223854 3.69271315,6.54624302 3.41657077,6.54624302 C3.17111088,6.54624302 2.9669624,6.36936786 2.92462644,6.13611865 L2.91657077,6.04624302 L2.91657077,3.31854409 C2.91657077,3.04240172 3.1404284,2.81854409 3.41657077,2.81854409 Z M17.6858458,3.77323872 C18.1526503,3.77323872 18.5310702,4.15165857 18.5310702,4.61846311 C18.5310702,5.08526766 18.1526503,5.46368751 17.6858458,5.46368751 C17.2190413,5.46368751 16.8406214,5.08526766 16.8406214,4.61846311 C16.8406214,4.15165857 17.2190413,3.77323872 17.6858458,3.77323872 Z M15.1542002,3.77323872 C15.6210048,3.77323872 15.9994246,4.15165857 15.9994246,4.61846311 C15.9994246,5.08526766 15.6210048,5.46368751 15.1542002,5.46368751 C14.6873957,5.46368751 14.3089758,5.08526766 14.3089758,4.61846311 C14.3089758,4.15165857 14.6873957,3.77323872 15.1542002,3.77323872 Z" id="Combined-Shape"></path>
            </g>
            <g id="Group" transform="translate(0.000000, 10.817031)"></g>
        </g>
    </g>
</svg>