<?xml version="1.0" encoding="utf-8"?>
<!-- Generator: Adobe Illustrator 23.0.6, SVG Export Plug-In . SVG Version: 6.00 Build 0)  -->
<svg version="1.1" id="Layer_1" xmlns="http://www.w3.org/2000/svg" xmlns:xlink="http://www.w3.org/1999/xlink" x="0px" y="0px"
	 viewBox="0 0 100 100" style="enable-background:new 0 0 100 100;" xml:space="preserve">
<style type="text/css">
	.st0{fill:#192239;}
</style>
<title>LTC_New</title>
<desc>Created with Sketch.</desc>
<g>
	<path class="st0" d="M23.2,45c-1,1-1,2.6,0,3.5c1,1,2.6,1,3.5,0l4.2-4.2v20.8c0,1.9,1.6,3.5,3.5,3.5h33.4c1.9,0,3.5-1.6,3.5-3.5
		V43.6l4.9,5c0.5,0.5,1.1,0.7,1.8,0.7c0.6,0,1.3-0.2,1.8-0.7c1-1,1-2.6,0-3.5L54.2,19.2L54,19c-1.4-1.4-3.6-1.3-4.9,0L23.2,45z
		 M51.5,23.6l14.9,15c0,0,0,0.1,0,0.1v24.9H36V39.3L51.5,23.6z"/>
	<path class="st0" d="M93.6,12.9C82.1,5.2,70.8,0.5,50.1,0.5c-20.7,0-32,4.7-43.5,12.4c-0.7,0.5-1.1,1.2-1.1,2.1v26.8
		c0,25.2,18,48.7,43.8,57.2c0.3,0.1,0.5,0.1,0.8,0.1s0.5,0,0.8-0.1c25.8-8.5,43.8-32,43.8-57.2V14.9C94.7,14.1,94.3,13.3,93.6,12.9z
		 M89.7,41.7c0,22.8-16.2,44.1-39.6,52.2c-23.4-8-39.6-29.4-39.6-52.2V16.3C21.1,9.4,31.2,5.5,50.1,5.5c18.9,0,29,3.9,39.6,10.8
		V41.7z"/>
</g>
</svg>
