<?xml version="1.0" encoding="utf-8"?>
<!-- Generator: Adobe Illustrator 23.0.6, SVG Export Plug-In . SVG Version: 6.00 Build 0)  -->
<svg version="1.1" id="Layer_1" xmlns="http://www.w3.org/2000/svg" xmlns:xlink="http://www.w3.org/1999/xlink" x="0px" y="0px"
	 viewBox="0 0 100 100" style="enable-background:new 0 0 100 100;" xml:space="preserve">
<style type="text/css">
	.st0{fill:#192239;}
</style>
<title>Menu_Hamburger_New</title>
<desc>Created with Sketch.</desc>
<g>
	<path class="st0" d="M3.2,22.4h93.3c1.7,0,3-1.3,3-3s-1.3-3-3-3H3.2c-1.7,0-3,1.3-3,3S1.5,22.4,3.2,22.4z"/>
	<path class="st0" d="M96.4,47.5H3.2c-1.7,0-3,1.3-3,3c0,1.7,1.3,3,3,3h93.3c1.7,0,3-1.3,3-3C99.4,48.8,98.1,47.5,96.4,47.5z"/>
	<path class="st0" d="M96.4,78.6H3.2c-1.7,0-3,1.3-3,3s1.3,3,3,3h93.3c1.7,0,3-1.3,3-3S98.1,78.6,96.4,78.6z"/>
</g>
</svg>
