<?xml version="1.0" encoding="utf-8"?>
<!-- Generator: Adobe Illustrator 23.0.6, SVG Export Plug-In . SVG Version: 6.00 Build 0)  -->
<svg version="1.1" id="Layer_1" xmlns="http://www.w3.org/2000/svg" xmlns:xlink="http://www.w3.org/1999/xlink" x="0px" y="0px"
	 viewBox="0 0 100 100" style="enable-background:new 0 0 100 100;" xml:space="preserve">
<style type="text/css">
	.st0{fill:#192239;}
</style>
<title>UpArrow</title>
<desc>Created with Sketch.</desc>
<path class="st0" d="M69.3,35.8L52.4,19.6c-1.4-1.3-3.5-1.3-4.8,0L30.7,35.8c-1.4,1.3-1.4,3.6-0.1,4.9s3.6,1.4,4.9,0.1l10.9-10.5V78
	c0,1.9,1.6,3.5,3.5,3.5c1.9,0,3.5-1.6,3.5-3.5V30.4l10.9,10.5c0.7,0.7,1.6,1,2.4,1c0.9,0,1.8-0.4,2.5-1.1
	C70.7,39.3,70.6,37.1,69.3,35.8z"/>
</svg>
