<?xml version="1.0" encoding="utf-8"?>
<!-- Generator: Adobe Illustrator 23.0.6, SVG Export Plug-In . SVG Version: 6.00 Build 0)  -->
<svg version="1.1" id="Layer_1" xmlns="http://www.w3.org/2000/svg" xmlns:xlink="http://www.w3.org/1999/xlink" x="0px" y="0px"
	 viewBox="0 0 100 100" style="enable-background:new 0 0 100 100;" xml:space="preserve">
<style type="text/css">
	.st0{fill:#192239;}
</style>
<title>DownArrow</title>
<desc>Created with Sketch.</desc>
<path class="st0" d="M69.4,58.3c-1.3-1.4-3.6-1.4-4.9-0.1L53.5,68.6V21c0-1.9-1.6-3.5-3.5-3.5c-1.9,0-3.5,1.6-3.5,3.5v47.6
	L35.6,58.2c-1.4-1.3-3.6-1.3-4.9,0.1c-1.3,1.4-1.3,3.6,0.1,4.9l16.8,16.2c0.7,0.7,1.6,1,2.4,1s1.7-0.3,2.4-1l16.8-16.2
	C70.6,61.9,70.7,59.7,69.4,58.3z"/>
</svg>
