<?xml version="1.0" encoding="utf-8"?>
<!-- Generator: Adobe Illustrator 23.0.6, SVG Export Plug-In . SVG Version: 6.00 Build 0)  -->
<svg version="1.1" id="Layer_1" xmlns="http://www.w3.org/2000/svg" xmlns:xlink="http://www.w3.org/1999/xlink" x="0px" y="0px"
	 viewBox="0 0 100 100" style="enable-background:new 0 0 100 100;" xml:space="preserve">
<style type="text/css">
	.st0{fill:#192239;}
</style>
<title>NewWindow</title>
<desc>Created with Sketch.</desc>
<g>
	<path class="st0" d="M95,36.5c-1.7,0-3,1.3-3,3V92H8V8h52.5c1.7,0,3-1.3,3-3s-1.3-3-3-3H5C3.3,2,2,3.3,2,5v90c0,1.7,1.3,3,3,3h90
		c1.7,0,3-1.3,3-3V39.5C98,37.9,96.7,36.5,95,36.5z"/>
	<path class="st0" d="M77.6,8.4h9.7L52.2,43.6c-1.2,1.2-1.2,3.1,0,4.2c0.6,0.6,1.4,0.9,2.1,0.9s1.5-0.3,2.1-0.9l35.2-35.2v9.8
		c0,1.7,1.3,3,3,3s3-1.3,3-3v-17c0-1.7-1.3-3-3-3h-17c-1.7,0-3,1.3-3,3S75.9,8.4,77.6,8.4z"/>
</g>
</svg>
