<?xml version="1.0" encoding="utf-8"?>
<!-- Generator: Adobe Illustrator 23.0.6, SVG Export Plug-In . SVG Version: 6.00 Build 0)  -->
<svg version="1.1" id="Layer_1" xmlns="http://www.w3.org/2000/svg" xmlns:xlink="http://www.w3.org/1999/xlink" x="0px" y="0px"
	 viewBox="0 0 100 100" style="enable-background:new 0 0 100 100;" xml:space="preserve">
<style type="text/css">
	.st0{fill:#192239;}
</style>
<title>PDF</title>
<desc>Created with Sketch.</desc>
<g>
	<path class="st0" d="M57.7,48.3c-1.8-2.1-3.7-4.4-5.3-6.4c-0.8-1-1.5-1.9-2.2-2.8l-0.1-0.1c1-2.9,1.6-5.3,1.7-7
		c0.3-4.5-0.2-7.4-1.5-8.9c-0.9-1-2.3-1.3-3.6-0.9c-0.9,0.3-2.2,1.2-2.9,3.4c-1.1,3.3-0.6,9.1,2.5,14c-1.4,3.6-3.3,7.7-5.4,11.6
		c-4,1.4-7.2,3.3-9.5,5.5c-3,2.9-4.2,5.8-3.3,8c0.5,1.3,1.8,2.1,3.3,2.1c1.1,0,2.2-0.4,3.4-1.1c2.8-1.9,6.5-8,8.5-11.6
		c4.1-1.3,8.2-1.8,10.2-2c0.9-0.1,1.9-0.2,2.8-0.2c3.6,3.8,6.6,5.8,9.3,6.3c0.5,0.1,1.1,0.2,1.6,0.2c2.2,0,4-0.9,4.9-2.4
		c0.6-1.1,0.6-2.4,0-3.6c-1.5-2.6-6.1-4-12.8-4C58.7,48.3,58.2,48.3,57.7,48.3z M32.9,62.8c-0.5,0.4-1.1,0.6-1.5,0.6
		c-0.1,0-0.1,0-0.2,0c-0.1-0.3,0.2-1.8,2.6-4.2c1.1-1.1,2.6-2.1,4.2-3C35.9,59.6,34,62,32.9,62.8z M47,26.7c0.3-0.8,0.6-1.1,0.8-1.2
		c0,0,0,0,0,0c0.2,0.2,1,1.4,0.6,6.3c-0.1,0.9-0.3,1.9-0.6,3.2C46.7,32.1,46.3,28.8,47,26.7z M53.2,48.6c-1.8,0.2-4.6,0.5-7.7,1.3
		c1.2-2.4,2.3-4.8,3.2-7.1c0.3,0.4,0.7,0.8,1,1.2c1.1,1.4,2.4,3,3.7,4.6L53.2,48.6z M69,54.1c0.1,0.1,0.1,0.1,0,0.1
		c-0.1,0.3-0.8,0.6-1.9,0.6c-0.3,0-0.7,0-1-0.1c-1.4-0.3-3.1-1.2-5-3C66.4,52,68.6,53.3,69,54.1z"/>
	<path class="st0" d="M66.5,1h-49c-3,0-5.4,2.4-5.4,5.4V93c0,3,2.4,5.4,5.4,5.4h65.4c3,0,5.4-2.4,5.4-5.4V22.8L66.5,1z M66.5,8.7
		l14.1,14.1H66.5V8.7z M82.8,93H17.4V6.4H61v16.3c0,3,2.4,5.4,5.4,5.4h16.3V93z"/>
	<path class="st0" d="M39.1,74.3h-4.9v11.1h2v-4.3h2.8c1.2,0,2.1-0.3,2.8-0.9c0.7-0.6,1-1.4,1-2.5c0-1.1-0.3-1.9-1-2.5
		C41.2,74.6,40.3,74.3,39.1,74.3z M38.9,79.5h-2.6v-3.7h2.6c0.7,0,1.2,0.2,1.6,0.5c0.3,0.3,0.5,0.8,0.5,1.4
		C41,78.9,40.3,79.5,38.9,79.5z"/>
	<path class="st0" d="M48.8,74.3h-4.1v11.1h4.1c1.8,0,3.2-0.5,4.2-1.5c1-1,1.5-2.3,1.5-4.1S54,76.7,53,75.8
		C52,74.8,50.6,74.3,48.8,74.3z M48.7,83.8h-1.9v-7.8h1.9c2.6,0,3.8,1.3,3.8,3.9C52.5,82.5,51.2,83.8,48.7,83.8z"/>
	<polygon class="st0" points="56.6,85.4 58.6,85.4 58.6,80.6 63.6,80.6 63.6,78.9 58.6,78.9 58.6,75.9 63.9,75.9 63.9,74.3 
		56.6,74.3 	"/>
</g>
</svg>
