<?xml version="1.0" encoding="utf-8"?>
<!-- Generator: Adobe Illustrator 23.0.6, SVG Export Plug-In . SVG Version: 6.00 Build 0)  -->
<svg version="1.1" id="Layer_1" xmlns="http://www.w3.org/2000/svg" xmlns:xlink="http://www.w3.org/1999/xlink" x="0px" y="0px"
	 viewBox="0 0 100 100" style="enable-background:new 0 0 100 100;" xml:space="preserve">
<style type="text/css">
	.st0{fill:#192239;}
</style>
<title>Client_New</title>
<desc>Created with Sketch.</desc>
<path class="st0" d="M69.4,44.7c4.4-5.3,7-12.2,7-18.8c0-13.5-11-24.4-24.6-24.4c-13.5,0-24.6,10.9-24.6,24.4c0,6,2.2,12.4,6,17.5
	C22,48,14.5,59,14.5,71.2v25.6c0,1.4,1.1,2.5,2.5,2.5s2.5-1.1,2.5-2.5V71.2c0-10.7,6.8-20.2,17-23.7c0.1,0,0.2-0.1,0.2-0.1
	c4.1,3.8,9.3,6.3,15,6.3c5.2,0,9.9-2,13.8-5.2c9.7,3.5,15.5,11.9,15.5,22.7v25.6c0,1.4,1.1,2.5,2.5,2.5s2.5-1.1,2.5-2.5V71.2
	C86.1,59,79.9,49.3,69.4,44.7z M32.3,25.9c0-10.7,8.8-19.4,19.6-19.4c10.8,0,19.6,8.7,19.6,19.4c0,10.6-8.5,22.8-19.6,22.8
	C40.8,48.7,32.3,36.5,32.3,25.9z"/>
</svg>
