<?xml version="1.0" encoding="utf-8"?>
<!-- Generator: Adobe Illustrator 23.0.6, SVG Export Plug-In . SVG Version: 6.00 Build 0)  -->
<svg version="1.1" id="Layer_1" xmlns="http://www.w3.org/2000/svg" xmlns:xlink="http://www.w3.org/1999/xlink" x="0px" y="0px"
	 viewBox="0 0 100 100" style="enable-background:new 0 0 100 100;" xml:space="preserve">
<style type="text/css">
	.st0{fill:#192239;}
</style>
<title>Presentation_New</title>
<desc>Created with Sketch.</desc>
<g>
	<path class="st0" d="M96.5,1.7H4.3c-1.4,0-2.5,1.1-2.5,2.5s1.1,2.5,2.5,2.5h3.4v53c0,2.5,2,4.5,4.5,4.5h35.7v17.5L24.7,94.3
		c-1.2,0.7-1.7,2.2-1,3.4c0.5,0.8,1.3,1.3,2.2,1.3c0.4,0,0.8-0.1,1.2-0.3l23.4-12.7l23.2,12.7c1.2,0.7,2.7,0.2,3.4-1
		c0.7-1.2,0.2-2.7-1-3.4L52.9,81.5V64.1h35.7c2.5,0,4.5-2,4.5-4.5v-53h3.4c1.4,0,2.5-1.1,2.5-2.5S97.9,1.7,96.5,1.7z M88.1,59.1
		H12.7V6.7h75.4V59.1z"/>
	<path class="st0" d="M20,50.8c0.6,0,1.3-0.2,1.8-0.7l18.4-18.4l13,13c1,1,2.6,1,3.5,0l25.4-25.4c1-1,1-2.6,0-3.5c-1-1-2.6-1-3.5,0
		L54.9,39.4l-13-13c-1-1-2.6-1-3.5,0L18.2,46.5c-1,1-1,2.6,0,3.5C18.7,50.5,19.3,50.8,20,50.8z"/>
</g>
</svg>
