<?xml version="1.0" encoding="UTF-8"?>
<svg width="100px" height="100px" viewBox="0 0 100 100" version="1.1" xmlns="http://www.w3.org/2000/svg" xmlns:xlink="http://www.w3.org/1999/xlink">
    <title>print</title>
    <g id="Page-1" stroke="none" stroke-width="1" fill="none" fill-rule="evenodd">
        <g id="Artboard" transform="translate(-50.000000, -42.000000)" fill="#000000" fill-rule="nonzero">
            <g id="print" transform="translate(50.000000, 42.000000)">
                <path d="M77,2.84217094e-14 C79.209139,2.84217094e-14 81,1.790861 81,4 L81,28.431 L97.752809,28.4313725 C98.9938983,28.4313725 100,29.3970329 100,30.5882353 L100,80.1960784 C100,81.3872808 98.9938983,82.3529412 97.752809,82.3529412 L81,82.3523725 L81,96 C81,98.209139 79.209139,100 77,100 L23,100 C20.790861,100 19,98.209139 19,96 L19,82.3523725 L2.24719101,82.3529412 C1.00610169,82.3529412 0,81.3872808 0,80.1960784 L0,30.5882353 C0,29.3970329 1.00610169,28.4313725 2.24719101,28.4313725 L19,28.431 L19,4 C19,1.790861 20.790861,2.84217094e-14 23,2.84217094e-14 L77,2.84217094e-14 Z M76,64.803 L24,64.803 L24,95 L76,95 L76,64.803 Z M94.3820225,33.8235294 L5.61797753,33.8235294 L5.61797753,76.9607843 L19,76.9603725 L19,63.8039216 C19,61.5947826 20.790861,59.8039216 23,59.8039216 L77,59.8039216 C79.209139,59.8039216 81,61.5947826 81,63.8039216 L81,76.9603725 L94.3820225,76.9607843 L94.3820225,33.8235294 Z M23.5,41 C24.8807119,41 26,42.1192881 26,43.5 C26,44.8807119 24.8807119,46 23.5,46 L14.5,46 C13.1192881,46 12,44.8807119 12,43.5 C12,42.1192881 13.1192881,41 14.5,41 L23.5,41 Z M76,5 L24,5 L24,28.333 L76,28.333 L76,5 Z" id="Combined-Shape"></path>
            </g>
        </g>
    </g>
</svg>