<?xml version="1.0" encoding="utf-8"?>
<!-- Generator: Adobe Illustrator 23.0.6, SVG Export Plug-In . SVG Version: 6.00 Build 0)  -->
<svg version="1.1" id="Layer_1" xmlns="http://www.w3.org/2000/svg" xmlns:xlink="http://www.w3.org/1999/xlink" x="0px" y="0px"
	 viewBox="0 0 100 100" style="enable-background:new 0 0 100 100;" xml:space="preserve">
<style type="text/css">
	.st0{fill:#192239;}
</style>
<title>MajorPurchase_New</title>
<desc>Created with Sketch.</desc>
<g>
	<path class="st0" d="M77.3,28L64.2,12.1c-0.7-0.8-1.7-1.3-2.7-1.3h-9.2V3c0-1.4-1.1-2.5-2.5-2.5c-1.4,0-2.5,1.1-2.5,2.5v7.8h-9.2
		c-1.1,0-2,0.5-2.7,1.3L22.3,28c-0.5,0.6-0.8,1.4-0.8,2.2V95c0,1.9,1.6,3.5,3.5,3.5h49.6c1.9,0,3.5-1.6,3.5-3.5V30.2
		C78.1,29.4,77.8,28.6,77.3,28z M73.1,93.5H26.5V30.8l12.3-14.9h8.5v4.9c0,1.4,1.1,2.5,2.5,2.5c1.4,0,2.5-1.1,2.5-2.5v-4.9h8.5
		l12.3,14.9V93.5z"/>
	<path class="st0" d="M49.6,41.7c4.2,0,7.6,3.4,7.6,7.6c0,1.4,1.1,2.5,2.5,2.5s2.5-1.1,2.5-2.5c0-6-4.2-11.1-9.9-12.3v-3
		c0-1.4-1.1-2.5-2.5-2.5c-1.4,0-2.5,1.1-2.5,2.5v2.9C41.4,38,37,43.1,37,49.3c0,7,5.7,12.6,12.6,12.6c4.2,0,7.6,3.4,7.6,7.6
		c0,4.2-3.4,7.6-7.6,7.6c-4.2,0-7.6-3.4-7.6-7.6c0-1.4-1.1-2.5-2.5-2.5S37,68.1,37,69.5c0,6.2,4.5,11.3,10.3,12.4v3.7
		c0,1.4,1.1,2.5,2.5,2.5c1.4,0,2.5-1.1,2.5-2.5v-3.7c5.6-1.3,9.9-6.3,9.9-12.3c0-7-5.7-12.6-12.6-12.6c-4.2,0-7.6-3.4-7.6-7.6
		S45.4,41.7,49.6,41.7z"/>
</g>
</svg>
