<?xml version="1.0" encoding="utf-8"?>
<!-- Generator: Adobe Illustrator 23.0.6, SVG Export Plug-In . SVG Version: 6.00 Build 0)  -->
<svg version="1.1" id="Layer_1" xmlns="http://www.w3.org/2000/svg" xmlns:xlink="http://www.w3.org/1999/xlink" x="0px" y="0px"
	 viewBox="0 0 100 100" style="enable-background:new 0 0 100 100;" xml:space="preserve">
<style type="text/css">
	.st0{fill:#394059;}
</style>
<title>ReassignClients</title>
<desc>Created with Sketch.</desc>
<g>
	<path class="st0" d="M86.7,40c1.7-2.7,2.7-5.9,2.7-8.9c0-7.9-6.6-14.3-14.7-14.3c-8.1,0-14.7,6.4-14.7,14.3c0,3,1,6.2,2.7,8.9
		c-2.4,1.3-4.5,3.2-6,5.4c-2.1-2.4-4.6-4.3-7.6-5.8c2.7-3.9,4.3-8.6,4.3-13.1c0-10.7-9-19.4-20-19.4c-11,0-20,8.7-20,19.4
		c0,4.5,1.6,9.2,4.3,13.1c-8.1,4-13.4,12.1-13.4,21.1v19.8c0,1.4,1.1,2.5,2.5,2.5s2.5-1.1,2.5-2.5V60.8c0-7.5,4.7-14.3,11.8-17.3
		c3.4,3.1,7.6,5.1,12.4,5.1c4.8,0,9-2,12.4-5.1c7.1,3,11.8,9.7,11.8,17.3v19.8c0,1.4,1.1,2.5,2.5,2.5s2.5-1.1,2.5-2.5V60.7
		c0-3.9-1-7.6-2.7-10.9c1.3-2.7,3.5-4.8,6.2-6c2.4,2.1,5.4,3.4,8.8,3.4c3.3,0,6.3-1.4,8.8-3.4c4.5,2,7.4,6.4,7.4,11.2v13.8
		c0,1.4,1.1,2.5,2.5,2.5s2.5-1.1,2.5-2.5V55C95.8,48.7,92.2,43,86.7,40z M33.4,43.7c-8.4,0-15.1-9.4-15.1-17.1
		c0-8,6.8-14.5,15.1-14.5c8.3,0,15.1,6.5,15.1,14.5C48.5,34.3,41.8,43.7,33.4,43.7z M74.7,42.4c-2.4,0-4.6-1.2-6.3-2.9
		c0-0.1-0.1-0.1-0.1-0.2c-2.1-2.2-3.4-5.3-3.4-8.1c0-5.2,4.4-9.4,9.8-9.4c5.4,0,9.8,4.2,9.8,9.4C84.5,36.2,80.2,42.4,74.7,42.4z"/>
	<path class="st0" d="M84.9,72.2c-0.3-1.3-1.6-2.1-2.9-1.8L70.3,73c-1.3,0.3-2.1,1.6-1.8,2.9c0.3,1.3,1.6,2.1,2.9,1.8l6.1-1.4
		C75.2,82.1,70,86.5,63.6,88c-5,1.1-10.1,0.4-14.3-2c-4.2-2.4-7.1-6.2-8.1-10.8c-0.3-1.3-1.6-2.1-2.9-1.8c-1.3,0.3-2.1,1.6-1.8,2.9
		c1.4,5.9,5.1,10.8,10.5,13.9c3.7,2.1,7.8,3.2,12.1,3.2c1.9,0,3.8-0.2,5.7-0.7c7.5-1.7,13.8-6.8,16.8-13.5l1.3,5.6
		c0.3,1.1,1.3,1.9,2.4,1.9c0.2,0,0.4,0,0.6-0.1c1.3-0.3,2.1-1.6,1.8-2.9L84.9,72.2z"/>
</g>
</svg>
