<?xml version="1.0" encoding="utf-8"?>
<!-- Generator: Adobe Illustrator 23.0.6, SVG Export Plug-In . SVG Version: 6.00 Build 0)  -->
<svg version="1.1" id="Layer_1" xmlns="http://www.w3.org/2000/svg" xmlns:xlink="http://www.w3.org/1999/xlink" x="0px" y="0px"
	 viewBox="0 0 100 100" style="enable-background:new 0 0 100 100;" xml:space="preserve">
<style type="text/css">
	.st0{fill:#192239;}
</style>
<title>ReportEditor_New</title>
<desc>Created with Sketch.</desc>
<g>
	<path class="st0" d="M85.3,12.7H75V3.3c0-1.1-0.9-2-2-2H14c-1.1,0-2,0.9-2,2v80.4c0,1.1,0.9,2,2,2h10.6v9.1c0,2.5,2,4.4,4.4,4.4
		h56.2c2.5,0,4.4-2,4.4-4.4V17.1C89.8,14.7,87.8,12.7,85.3,12.7z M17.4,6.7h52.1v73.5H17.4V6.7z M84.9,94.3H29.6v-8.7H73
		c1.1,0,2-0.9,2-2V17.6h9.9V94.3z"/>
	<path class="st0" d="M59.5,66.9h-32c-1.4,0-2.5,1.1-2.5,2.5s1.1,2.5,2.5,2.5h32c1.4,0,2.5-1.1,2.5-2.5S60.9,66.9,59.5,66.9z"/>
	<path class="st0" d="M59.5,50.6h-32c-1.4,0-2.5,1.1-2.5,2.5s1.1,2.5,2.5,2.5h32c1.4,0,2.5-1.1,2.5-2.5S60.9,50.6,59.5,50.6z"/>
	<path class="st0" d="M58.1,15.7L40.3,33.6l-4.4-4.4c-0.5-0.5-1.1-0.7-1.8-0.7c0,0,0,0,0,0c-0.7,0-1.3,0.3-1.8,0.7l-7,7.1
		c-1,1-1,2.6,0,3.5c0.5,0.5,1.1,0.7,1.8,0.7c0.6,0,1.3-0.2,1.8-0.7l5.2-5.3l4.4,4.4c0.5,0.5,1.1,0.7,1.8,0.7c0,0,0,0,0,0
		c0.7,0,1.3-0.3,1.8-0.7l19.5-19.6c1-1,1-2.6,0-3.5C60.6,14.8,59.1,14.8,58.1,15.7z"/>
</g>
</svg>
