<?xml version="1.0" encoding="utf-8"?>
<!-- Generator: Adobe Illustrator 21.1.0, SVG Export Plug-In . SVG Version: 6.00 Build 0)  -->
<svg version="1.1" id="Layer_1" xmlns="http://www.w3.org/2000/svg" xmlns:xlink="http://www.w3.org/1999/xlink" x="0px" y="0px"
	 viewBox="0 0 20 20" style="enable-background:new 0 0 20 20;" xml:space="preserve">
<style type="text/css">
	.st0{fill:#DA1C5C;}
</style>
<path class="st0" d="M18.2,4H14v4.2c0,0.3,0.2,0.5,0.5,0.5S15,8.4,15,8.2V5.3c0.3,0.4,0.6,0.7,0.9,1.1c1,1.6,1.3,3.4,0.8,5.2
	s-1.5,3.3-3.1,4.3c-1.6,1-3.4,1.3-5.2,0.8c-1.2-0.3-2.2-0.9-3.1-1.7c0,0,0,0,0,0c-0.5-0.5-0.9-0.9-1.2-1.4c-1-1.6-1.3-3.4-0.8-5.2
	c0.8-3.4,4-5.6,7.5-5.2c0.3,0,0.5-0.2,0.6-0.4c0-0.3-0.2-0.5-0.4-0.6c-4-0.5-7.6,2.1-8.6,6c-0.5,2-0.2,4.2,1,6
	c0.3,0.5,0.8,1,1.3,1.6c0,0,0,0,0,0c1,1,2.2,1.6,3.6,2c0.6,0.1,1.2,0.2,1.8,0.2c1.4,0,2.9-0.4,4.1-1.2c1.8-1.1,3-2.8,3.5-4.9
	s0.2-4.2-1-6c-0.2-0.3-0.4-0.6-0.6-0.9h2.2c0.3,0,0.5-0.2,0.5-0.5S18.5,4,18.2,4z"/>
</svg>
