<?xml version="1.0" encoding="utf-8"?>
<!-- Generator: Adobe Illustrator 23.0.6, SVG Export Plug-In . SVG Version: 6.00 Build 0)  -->
<svg version="1.1" id="Layer_1" xmlns="http://www.w3.org/2000/svg" xmlns:xlink="http://www.w3.org/1999/xlink" x="0px" y="0px"
	 viewBox="0 0 100 100" style="enable-background:new 0 0 100 100;" xml:space="preserve">
<style type="text/css">
	.st0{fill:#192239;}
</style>
<title>Refresh_New</title>
<desc>Created with Sketch.</desc>
<g>
	<path class="st0" d="M49.7,0.3c-16.5,0-32.6,8.8-42,22.7v-9.3c0-1.7-1.3-3-3-3s-3,1.3-3,3v17c0,1.7,1.3,3,3,3h17c1.7,0,3-1.3,3-3
		s-1.3-3-3-3h-9.9C19.9,14.9,34.9,6.3,49.7,6.3c24.1,0,43.6,19.6,43.6,43.6c0,1.7,1.3,3,3,3s3-1.3,3-3C99.3,22.6,77,0.3,49.7,0.3z"
		/>
	<path class="st0" d="M94,67.1H77c-1.7,0-3,1.3-3,3s1.3,3,3,3h9.6c-7.9,12.7-22,20.5-37,20.5C25.6,93.5,6.1,74,6.1,49.9
		c0-1.7-1.3-3-3-3s-3,1.3-3,3c0,27.4,22.3,49.6,49.6,49.6c16.6,0,32.2-8.4,41.3-22.2v9.7c0,1.7,1.3,3,3,3s3-1.3,3-3v-17
		C97,68.4,95.7,67.1,94,67.1z"/>
</g>
</svg>
