<?xml version="1.0" encoding="utf-8"?>
<!-- Generator: Adobe Illustrator 23.0.6, SVG Export Plug-In . SVG Version: 6.00 Build 0)  -->
<svg version="1.1" id="Layer_1" xmlns="http://www.w3.org/2000/svg" xmlns:xlink="http://www.w3.org/1999/xlink" x="0px" y="0px"
	 viewBox="0 0 100 100" style="enable-background:new 0 0 100 100;" xml:space="preserve">
<style type="text/css">
	.st0{fill:#192239;}
</style>
<title>Retirement_New</title>
<desc>Created with Sketch.</desc>
<g>
	<path class="st0" d="M4.3,54.7c6.3-3.8,14.3-2.8,19.5,2.3c4.1,4.1,9.5,6.1,14.8,6.1c5.4,0,10.7-2,14.8-6.1c6.2-6.2,16.4-6.2,22.6,0
		c5.7,5.6,14.3,7.5,21.9,4.8c1.3-0.5,2-1.9,1.5-3.2c-0.5-1.3-1.9-2-3.2-1.5c-4.3,1.5-8.9,1.2-12.8-0.8c2.2-9.5-0.7-19.5-7.7-26.5
		c-11.2-11.1-29.4-11.1-40.6,0c-6.3,6.2-9.2,14.7-8.3,23.2c-6.8-6.3-17-7.4-25-2.6c-1.2,0.7-1.6,2.2-0.9,3.4S3.1,55.4,4.3,54.7z
		 M38.6,33.4c9.3-9.2,24.3-9.2,33.6,0c5.2,5.2,7.6,12.4,6.8,19.6c-8.2-7.5-21-7.4-29,0.5c-4.6,4.6-11.4,5.8-17.2,3.5
		C30.1,48.7,32.3,39.6,38.6,33.4z"/>
	<path class="st0" d="M96.2,72.7c-5.9,2.1-12.3,0.7-16.7-3.7C71.3,61,58,61,49.9,69.1c-6.2,6.2-16.4,6.2-22.6,0
		c-6.8-6.7-17.3-8-25.6-3.1c-1.2,0.7-1.6,2.2-0.9,3.4c0.7,1.2,2.2,1.6,3.4,0.9c6.3-3.8,14.3-2.8,19.5,2.3c4.1,4.1,9.5,6.1,14.8,6.1
		c5.4,0,10.7-2,14.8-6.1c6.2-6.2,16.4-6.2,22.6,0c5.7,5.6,14.2,7.5,21.8,4.8c1.3-0.5,2-1.9,1.5-3.2C98.9,73,97.5,72.3,96.2,72.7z"/>
</g>
</svg>
