<?xml version="1.0" encoding="utf-8"?>
<!-- Generator: Adobe Illustrator 23.0.6, SVG Export Plug-In . SVG Version: 6.00 Build 0)  -->
<svg version="1.1" id="Layer_1" xmlns="http://www.w3.org/2000/svg" xmlns:xlink="http://www.w3.org/1999/xlink" x="0px" y="0px"
	 viewBox="0 0 100 100" style="enable-background:new 0 0 100 100;" xml:space="preserve">
<style type="text/css">
	.st0{fill:#192239;}
</style>
<title>Search</title>
<desc>Created with Sketch.</desc>
<path class="st0" d="M75,7.8c-6-4.3-12.8-6.3-19.6-6.3v5.4c5.9,0,11.6,1.8,16.5,5.3c6.2,4.4,10.3,11,11.6,18.6
	c1.3,7.5-0.5,15.1-4.9,21.4c-5.3,7.5-14,12-23.3,12c-5.9,0-11.6-1.8-16.5-5.3C25.9,49.8,22.9,31.8,32,19c5.3-7.5,14-12,23.3-12
	l0-5.4c0,0,0,0,0,0c-10.6,0-21.1,5-27.7,14.3c-10.4,14.7-7.6,34.8,6,46l-24,33.8c-0.8,1.1-0.5,2.6,0.6,3.4c0.4,0.3,0.9,0.5,1.4,0.5
	c0.8,0,1.5-0.4,2-1l24-33.8c5.5,3.3,11.6,5,17.6,5c10.6,0,21.1-5,27.7-14.3C93.8,40,90.2,18.7,75,7.8z"/>
</svg>
