<?xml version="1.0" encoding="utf-8"?>
<!-- Generator: Adobe Illustrator 23.0.6, SVG Export Plug-In . SVG Version: 6.00 Build 0)  -->
<svg version="1.1" id="Layer_1" xmlns="http://www.w3.org/2000/svg" xmlns:xlink="http://www.w3.org/1999/xlink" x="0px" y="0px"
	 viewBox="0 0 100 100" style="enable-background:new 0 0 100 100;" xml:space="preserve">
<style type="text/css">
	.st0{fill:#192239;}
</style>
<title>Settings</title>
<desc>Created with Sketch.</desc>
<g>
	<path class="st0" d="M50.7,37.4c-7.3,0-13.3,6-13.3,13.3c0,7.3,6,13.3,13.3,13.3C58.1,64,64,58,64,50.7
		C64,43.3,58.1,37.4,50.7,37.4z M50.7,58.5c-4.3,0-7.9-3.5-7.9-7.9s3.5-7.9,7.9-7.9s7.9,3.5,7.9,7.9S55.1,58.5,50.7,58.5z"/>
	<path class="st0" d="M93.5,37.5h-6.2c-0.4-1.2-0.9-2.3-1.4-3.4l4.4-4.4c1-1,1.6-2.4,1.6-3.8s-0.6-2.8-1.6-3.8L79.3,11.2
		c-1.1-1.1-2.4-1.6-3.8-1.6s-2.8,0.5-3.8,1.6l-4.4,4.4c-1.1-0.5-2.3-1-3.4-1.4V7.9c0-3-2.4-5.4-5.4-5.4H43c-3,0-5.4,2.4-5.4,5.4v6.3
		c-1.1,0.4-2.2,0.9-3.3,1.4l-4.5-4.5c-1-1-2.4-1.6-3.8-1.6s-2.8,0.6-3.8,1.6L11.3,22.1c-1,1-1.6,2.4-1.6,3.8s0.6,2.8,1.6,3.8
		l4.6,4.6c-0.5,1-0.9,2.1-1.3,3.2H8c-3,0-5.4,2.4-5.4,5.4v15.4c0,3,2.4,5.4,5.4,5.4h6.7c0.4,1,0.8,2,1.3,3l-4.8,4.8
		c-1,1-1.6,2.4-1.6,3.8c0,1.4,0.6,2.8,1.6,3.8l10.9,10.9c1,1,2.4,1.6,3.8,1.6s2.8-0.6,3.8-1.6l4.8-4.8c1,0.5,2,0.9,3,1.3v6.7
		c0,3,2.4,5.4,5.4,5.4h15.4c3,0,5.4-2.4,5.4-5.4v-6.6c1.1-0.4,2.1-0.8,3.2-1.3l4.6,4.6c1,1,2.4,1.6,3.8,1.6s2.8-0.6,3.8-1.6
		l10.9-10.9c1-1,1.6-2.4,1.6-3.8c0-1.4-0.6-2.8-1.6-3.8l-4.5-4.5c0.5-1.1,1-2.2,1.4-3.3h6.3c3,0,5.4-2.4,5.4-5.4V42.9
		C98.9,40,96.5,37.5,93.5,37.5z M93.5,58.4H83.1c-0.8,3.5-2.2,6.7-4.1,9.7l7.4,7.4L75.5,86.3L68,78.9c-2.9,1.8-6.1,3.1-9.6,3.9v10.6
		H43V82.7c-3.4-0.8-6.5-2.2-9.4-3.9L26,86.3L15.1,75.4l7.6-7.6c-1.8-2.9-3.1-6.1-3.9-9.4H8V42.9h10.6c0.8-3.4,2.1-6.6,3.9-9.6
		l-7.5-7.5L26,15l7.4,7.4c2.9-1.8,6.2-3.2,9.7-4.1V7.9h15.4v10.2c3.5,0.8,6.8,2.2,9.8,4l7.2-7.2l10.9,10.9l-7.2,7.2
		c1.8,3,3.2,6.3,4,9.8h10.2V58.4z"/>
</g>
</svg>
