<?xml version="1.0" encoding="UTF-8"?>
<svg width="21px" height="22px" viewBox="0 0 21 22" version="1.1" xmlns="http://www.w3.org/2000/svg" xmlns:xlink="http://www.w3.org/1999/xlink">
    <!-- Generator: Sketch 61 (89581) - https://sketch.com -->
    <title>Site Manager</title>
    <desc>Created with Sketch.</desc>
    <g id="Page-2" stroke="none" stroke-width="1" fill="none" fill-rule="evenodd">
        <g id="Site-Manager" transform="translate(-1.000000, 0.000000)">
            <g id="Group-2" transform="translate(0.555556, 0.000000)" fill="#192239" fill-rule="nonzero">
                <path d="M20.1111111,0.5 C20.6327134,0.5 21.0555556,0.922842181 21.0555556,1.44444444 L21.0555556,1.44444444 L21.0555556,7.22222222 C21.0555556,7.74382449 20.6327134,8.16666667 20.1111111,8.16666667 L20.1111111,8.16666667 L11.6104444,8.166 L11.6111111,10.4444444 L11.6054444,10.499 L16.8074805,10.5 C17.0836229,10.5 17.3074805,10.7238576 17.3074805,11 C17.3074805,11.070019 17.293088,11.1366765 17.2670999,11.1971753 C17.2674766,11.2019897 17.2686511,11.2078543 17.2697221,11.2137549 L17.2777778,11.3036306 L17.2774444,13.833 L20.3333333,13.8333333 C20.8176783,13.8333333 21.2168679,14.1979268 21.2714238,14.6676356 L21.2777778,14.7777778 L21.2777778,20.5555556 C21.2777778,21.0771578 20.8549356,21.5 20.3333333,21.5 L20.3333333,21.5 L13.2222222,21.5 C12.70062,21.5 12.2777778,21.0771578 12.2777778,20.5555556 L12.2777778,20.5555556 L12.2777778,14.7777778 C12.2777778,14.2561755 12.70062,13.8333333 13.2222222,13.8333333 L13.2222222,13.8333333 L16.2774444,13.833 L16.2774444,11.499 L5.94444444,11.499 L5.94444444,13.833 L9,13.8333333 C9.48434496,13.8333333 9.88353454,14.1979268 9.93809048,14.6676356 L9.94444444,14.7777778 L9.94444444,20.5555556 C9.94444444,21.0771578 9.52160226,21.5 9,21.5 L9,21.5 L1.88888889,21.5 C1.36728663,21.5 0.944444444,21.0771578 0.944444444,20.5555556 L0.944444444,20.5555556 L0.944444444,14.7777778 C0.944444444,14.2561755 1.36728663,13.8333333 1.88888889,13.8333333 L1.88888889,13.8333333 L4.94444444,13.833 L4.94444444,11.3036306 C4.94444444,11.2332182 4.95899916,11.1662053 4.98526415,11.1054362 C4.97812689,11.0727085 4.9741472,11.036819 4.9741472,11 C4.9741472,10.7545401 5.15102236,10.5503916 5.38427157,10.5080557 L5.4741472,10.5 L10.6154444,10.499 L10.6111111,10.4444444 L10.6104444,8.166 L1.88888889,8.16666667 C1.40454393,8.16666667 1.00535435,7.80207315 0.950798413,7.3323644 L0.944444444,7.22222222 L0.944444444,1.44444444 C0.944444444,0.922842181 1.36728663,0.5 1.88888889,0.5 L1.88888889,0.5 Z M8.94444444,14.833 L1.94444444,14.833 L1.94444444,20.499 L8.94444444,20.499 L8.94444444,14.833 Z M20.2774444,14.833 L13.2774444,14.833 L13.2774444,20.499 L20.2774444,20.499 L20.2774444,14.833 Z M20.0554444,1.5 L1.94444444,1.5 L1.94444444,7.166 L20.0554444,7.166 L20.0554444,1.5 Z" id="Combined-Shape"></path>
            </g>
            <g id="Group-2" transform="translate(4.777778, 10.222222)"></g>
            <g id="Group-2" transform="translate(16.111111, 10.222222)"></g>
            <g id="Group-2" transform="translate(11.944444, 10.777778) rotate(-270.000000) translate(-11.944444, -10.777778) translate(10.944444, 4.277778)"></g>
        </g>
    </g>
</svg>