<?xml version="1.0" encoding="utf-8"?>
<!-- Generator: Adobe Illustrator 23.0.6, SVG Export Plug-In . SVG Version: 6.00 Build 0)  -->
<svg version="1.1" id="Layer_1" xmlns="http://www.w3.org/2000/svg" xmlns:xlink="http://www.w3.org/1999/xlink" x="0px" y="0px"
	 viewBox="0 0 100 100" style="enable-background:new 0 0 100 100;" xml:space="preserve">
<style type="text/css">
	.st0{fill:#192239;}
</style>
<title>Star</title>
<desc>Created with Sketch.</desc>
<path class="st0" d="M97.1,37.7c-0.3-0.9-1.1-1.6-2-1.7l-29.6-4.3L52.2,4.9C51.8,4,51,3.5,50,3.5S48.2,4,47.8,4.9L34.5,31.7L4.9,36
	c-0.9,0.1-1.7,0.8-2,1.7c-0.3,0.9,0,1.9,0.6,2.6L25,61.1l-5.1,29.5c-0.2,0.9,0.2,1.9,1,2.4c0.8,0.6,1.8,0.6,2.6,0.2L50,79.3
	l26.5,13.9c0.4,0.2,0.8,0.3,1.2,0.3c0.5,0,1-0.2,1.5-0.5c0.8-0.6,1.2-1.5,1-2.4L75,61.1l21.4-20.9C97.1,39.6,97.4,38.6,97.1,37.7z
	 M70.6,58.5c-0.6,0.6-0.9,1.4-0.7,2.2l4.4,25.8L51.2,74.3C50.8,74.1,50.4,74,50,74s-0.8,0.1-1.2,0.3L25.7,86.5l4.4-25.8
	c0.1-0.8-0.1-1.6-0.7-2.2L10.7,40.2l25.9-3.8c0.8-0.1,1.5-0.6,1.9-1.4L50,11.6l11.6,23.4c0.4,0.7,1.1,1.2,1.9,1.4l25.9,3.8
	L70.6,58.5z"/>
</svg>
