<?xml version="1.0" encoding="utf-8"?>
<!-- Generator: Adobe Illustrator 23.0.6, SVG Export Plug-In . SVG Version: 6.00 Build 0)  -->
<svg version="1.1" id="Layer_1" xmlns="http://www.w3.org/2000/svg" xmlns:xlink="http://www.w3.org/1999/xlink" x="0px" y="0px"
	 viewBox="0 0 100 100" style="enable-background:new 0 0 100 100;" xml:space="preserve">
<style type="text/css">
	.st0{fill:#192239;}
</style>
<title>Link_Sync_New</title>
<desc>Created with Sketch.</desc>
<g>
	<path class="st0" d="M53.5,67.3c-1.2-0.7-2.7-0.2-3.4,1L38.7,89.5c-2.7,5-8.9,6.9-13.9,4.2c0,0,0,0-0.1,0c-2.4-1.3-4.1-3.5-4.9-6.1
		c-0.8-2.6-0.5-5.4,0.8-7.8l15.7-29.4c2.7-5,8.9-6.9,14-4.2c1.2,0.7,2.7,0.2,3.4-1c0.7-1.2,0.2-2.7-1-3.4c-7.4-4-16.7-1.2-20.7,6.3
		L16.1,77.4c-1.9,3.6-2.3,7.7-1.2,11.7c1.2,3.9,3.8,7.1,7.4,9.1c0,0,0.1,0,0.1,0c2.3,1.2,4.7,1.8,7.1,1.8c5.5,0,10.8-2.9,13.5-8.1
		l11.4-21.2C55.1,69.5,54.7,67.9,53.5,67.3z"/>
	<path class="st0" d="M81,11.6c-1.2-3.9-3.8-7.1-7.4-9.1c-7.4-4-16.7-1.2-20.7,6.3L41.5,30.1c-0.7,1.2-0.2,2.7,1,3.4
		c1.2,0.7,2.7,0.2,3.4-1l11.4-21.2c2.7-5,8.9-6.9,13.9-4.2c2.4,1.3,4.2,3.5,5,6.1c0.8,2.6,0.5,5.4-0.8,7.8L59.7,50.3
		c-2.7,5-8.9,6.9-14,4.2c-1.2-0.7-2.7-0.2-3.4,1s-0.2,2.7,1,3.4c2.3,1.2,4.8,1.8,7.2,1.8c5.5,0,10.8-2.9,13.5-8.1l15.7-29.4
		C81.8,19.7,82.2,15.5,81,11.6z"/>
</g>
</svg>
