<?xml version="1.0" encoding="utf-8"?>
<!-- Generator: Adobe Illustrator 23.0.6, SVG Export Plug-In . SVG Version: 6.00 Build 0)  -->
<svg version="1.1" id="Layer_1" xmlns="http://www.w3.org/2000/svg" xmlns:xlink="http://www.w3.org/1999/xlink" x="0px" y="0px"
	 viewBox="0 0 100 100" style="enable-background:new 0 0 100 100;" xml:space="preserve">
<style type="text/css">
	.st0{fill:#192239;}
</style>
<title>Table</title>
<desc>Created with Sketch.</desc>
<path class="st0" d="M86.3,15.3H13.6c-1.1,0-2,0.9-2,2V82c0,1.1,0.9,2,2,2h35.8c0.2,0,0.3,0,0.5,0c0.2,0,0.3,0,0.5,0h35.9
	c1.1,0,2-0.9,2-2V17.3C88.3,16.2,87.4,15.3,86.3,15.3z M15.9,37.8h31.5v19.3H15.9V37.8z M52.4,37.8H84v19.3H52.4V37.8z M15.9,62.1
	h31.5v17.6H15.9V62.1z M52.4,79.7V62.1H84v17.6H52.4z"/>
</svg>
