<?xml version="1.0" encoding="UTF-8"?>
<svg width="25px" height="17px" viewBox="0 0 25 17" version="1.1" xmlns="http://www.w3.org/2000/svg" xmlns:xlink="http://www.w3.org/1999/xlink">
    <!-- Generator: Sketch 61 (89581) - https://sketch.com -->
    <title>Teams</title>
    <desc>Created with Sketch.</desc>
    <g id="Page-2" stroke="none" stroke-width="1" fill="none" fill-rule="evenodd">
        <g id="Teams">
            <g id="Group-2" transform="translate(0.123225, 0.242819)">
                <g id="Group-112" fill="#192239" fill-rule="nonzero">
                    <path d="M12.3240988,0.5 C14.4841354,0.5 16.2352929,2.25344647 16.2352929,4.41584144 C16.2352929,5.43562664 15.8617303,6.44738299 15.2571754,7.24804862 C15.9528872,7.55105234 16.5553255,8.0003112 17.0274834,8.5510359 C17.3464619,8.09481613 17.7703108,7.72578548 18.2605834,7.4833146 C17.9049881,6.92867995 17.691175,6.25997392 17.691175,5.58689346 C17.691175,3.98702248 18.9493345,2.68300635 20.5108591,2.68300635 C22.0719948,2.68300635 23.3300635,3.9871147 23.3300635,5.58689346 C23.3300635,6.22473981 23.1380405,6.85868835 22.8143806,7.39682712 C23.8016949,8.03288948 24.4215667,9.17927753 24.4215667,10.4395884 L24.4215667,10.4395884 L24.4215667,13.2794107 L24.413511,13.3692863 C24.371175,13.6025356 24.1670266,13.7794107 23.9215667,13.7794107 C23.6454243,13.7794107 23.4215667,13.5555531 23.4215667,13.2794107 L23.4215667,13.2794107 L23.4215667,10.4395884 L23.414767,10.2434401 C23.3516371,9.33569438 22.8536135,8.54129068 22.1171232,8.14433532 L22.1749737,8.17887165 C21.7050163,8.60306526 21.1273233,8.86764643 20.5108591,8.86764643 C19.9405809,8.86764643 19.4035039,8.64135187 18.9541749,8.27178405 L18.9098522,8.29103951 C18.3678511,8.49081988 17.9126549,8.91457967 17.6423931,9.46754992 C17.9344206,10.0350144 18.1087066,10.6641609 18.1402354,11.3239024 L18.1454234,11.541364 L18.1454234,15.4624171 C18.1454234,15.7385594 17.9215658,15.9624171 17.6454234,15.9624171 C17.3999635,15.9624171 17.195815,15.7855419 17.1534791,15.5522927 L17.1454234,15.4624171 L17.1454234,11.541364 C17.1454234,9.95189654 16.0770593,8.54915815 14.5074359,8.03049957 C13.8772544,8.54955441 13.1215219,8.86764643 12.3240988,8.86764643 C11.5616438,8.86764643 10.8373564,8.57683899 10.2240188,8.09892976 C8.82261381,8.640579 7.86275722,9.90096764 7.7817074,11.3423906 L7.77614325,11.5406429 L7.77614325,15.4624171 C7.77614325,15.7385594 7.55228563,15.9624171 7.27614325,15.9624171 C7.03068336,15.9624171 6.82653488,15.7855419 6.78419892,15.5522927 L6.77614325,15.4624171 L6.77614325,11.5406429 C6.77614325,10.7531208 6.97989902,10.0036381 7.34436667,9.34310984 L7.35742847,9.37139807 C7.10271079,8.73232573 6.61011838,8.23873404 6.01171443,8.01816372 L5.96839231,7.99808493 C5.51886014,8.36813996 4.98140915,8.59477063 4.41070754,8.59477063 C3.79380306,8.59477063 3.21572509,8.32981136 2.74558606,7.90508662 L2.88032308,7.83241427 C2.10267843,8.21388772 1.56994292,9.03372081 1.50638865,9.9765914 L1.5,10.1667126 L1.5,13.0065349 C1.5,13.2826773 1.27614237,13.5065349 1,13.5065349 C0.754540111,13.5065349 0.55039163,13.3296598 0.508055669,13.0964106 L0.5,13.0065349 L0.5,10.1667126 C0.5,8.90438783 1.12197216,7.75838178 2.10723678,7.12273457 C1.78352621,6.58581255 1.59150317,5.95186402 1.59150317,5.31401767 C1.59150317,3.71423891 2.84957187,2.41013056 4.41070754,2.41013056 C5.97223217,2.41013056 7.23039167,3.71414669 7.23039167,5.31401767 C7.23039167,5.98709813 7.01657853,6.65580416 6.6598832,7.21217717 C7.20530143,7.4793989 7.66850088,7.90539819 7.99929125,8.4342708 C8.4060074,7.9889231 8.90184809,7.61589235 9.46415622,7.34055564 C8.81694968,6.52733088 8.41339802,5.47594578 8.41339802,4.41584144 C8.41339802,2.25337459 10.1641339,0.5 12.3240988,0.5 Z M12.3240988,1.5 C10.7167561,1.5 9.41339802,2.80532247 9.41339802,4.41584144 C9.41339802,6.14782461 10.8247128,7.86764643 12.3240988,7.86764643 C13.8235884,7.86764643 15.2352929,6.14769344 15.2352929,4.41584144 C15.2352929,2.805439 13.9315581,1.5 12.3240988,1.5 Z M20.5108591,3.68300635 C19.509788,3.68300635 18.691175,4.53145569 18.691175,5.58689346 C18.691175,6.73244652 19.5914755,7.86764643 20.5108591,7.86764643 C21.4298262,7.86764643 22.3300635,6.73236398 22.3300635,5.58689346 C22.3300635,4.53151723 21.5115081,3.68300635 20.5108591,3.68300635 Z M4.41070754,3.41013056 C3.41005861,3.41013056 2.59150317,4.25864144 2.59150317,5.31401767 C2.59150317,6.45948818 3.49174045,7.59477063 4.41070754,7.59477063 C5.33009121,7.59477063 6.23039167,6.45957073 6.23039167,5.31401767 C6.23039167,4.25857989 5.41177864,3.41013056 4.41070754,3.41013056 Z" id="Combined-Shape"></path>
                </g>
                <g id="Group" transform="translate(20.421567, 8.683006) scale(-1, 1) translate(-20.421567, -8.683006) translate(16.921567, 3.183006)"></g>
            </g>
        </g>
    </g>
</svg>