<?xml version="1.0" encoding="utf-8"?>
<!-- Generator: Adobe Illustrator 23.0.6, SVG Export Plug-In . SVG Version: 6.00 Build 0)  -->
<svg version="1.1" id="Layer_1" xmlns="http://www.w3.org/2000/svg" xmlns:xlink="http://www.w3.org/1999/xlink" x="0px" y="0px"
	 viewBox="0 0 100 100" style="enable-background:new 0 0 100 100;" xml:space="preserve">
<style type="text/css">
	.st0{fill:#394059;}
</style>
<title>Templates</title>
<desc>Created with Sketch.</desc>
<g>
	<path class="st0" d="M82.5,14.7H73V6.2c0-1-0.8-1.9-1.9-1.9H16.9c-1,0-1.9,0.8-1.9,1.9v75.3c0,1,0.8,1.9,1.9,1.9h9.5v8.5
		c0,2.4,2,4.4,4.4,4.4h51.7c2.4,0,4.4-2,4.4-4.4V19.1C86.9,16.7,84.9,14.7,82.5,14.7z M20,9.4h48v68.9H20V9.4z M81.9,91.3H31.4v-7.9
		h39.7c1,0,1.9-0.8,1.9-1.9V19.7h8.9V91.3z"/>
	<path class="st0" d="M58.8,63.7H29.3c-1.4,0-2.5,1.1-2.5,2.5s1.1,2.5,2.5,2.5h29.5c1.4,0,2.5-1.1,2.5-2.5S60.1,63.7,58.8,63.7z"/>
	<path class="st0" d="M58.8,48.4H29.3c-1.4,0-2.5,1.1-2.5,2.5s1.1,2.5,2.5,2.5h29.5c1.4,0,2.5-1.1,2.5-2.5S60.1,48.4,58.8,48.4z"/>
	<path class="st0" d="M58.8,33.4H29.3c-1.4,0-2.5,1.1-2.5,2.5s1.1,2.5,2.5,2.5h29.5c1.4,0,2.5-1.1,2.5-2.5S60.1,33.4,58.8,33.4z"/>
	<path class="st0" d="M58.8,18.4H29.3c-1.4,0-2.5,1.1-2.5,2.5s1.1,2.5,2.5,2.5h29.5c1.4,0,2.5-1.1,2.5-2.5S60.1,18.4,58.8,18.4z"/>
</g>
</svg>
