<?xml version="1.0" encoding="utf-8"?>
<!-- Generator: Adobe Illustrator 23.0.6, SVG Export Plug-In . SVG Version: 6.00 Build 0)  -->
<svg version="1.1" id="Layer_1" xmlns="http://www.w3.org/2000/svg" xmlns:xlink="http://www.w3.org/1999/xlink" x="0px" y="0px"
	 viewBox="0 0 100 100" style="enable-background:new 0 0 100 100;" xml:space="preserve">
<style type="text/css">
	.st0{fill:#192239;}
</style>
<title>Transfers_New</title>
<desc>Created with Sketch.</desc>
<g>
	<path class="st0" d="M16.4,49.6c0.6,0.6,1.4,0.9,2.1,0.9s1.5-0.3,2.1-0.9c1.2-1.2,1.2-3.1,0-4.2l-6.9-6.9H94c1.7,0,3-1.3,3-3
		s-1.3-3-3-3H13.7l6.9-6.9c1.2-1.2,1.2-3.1,0-4.2c-1.2-1.2-3.1-1.2-4.2,0l-12,12c-1.2,1.2-1.2,3.1,0,4.2L16.4,49.6z"/>
	<path class="st0" d="M83.6,51.4c-1.2-1.2-3.1-1.2-4.2,0c-1.2,1.2-1.2,3.1,0,4.2l6.9,6.9H6c-1.7,0-3,1.3-3,3s1.3,3,3,3h80.3
		l-6.9,6.9c-1.2,1.2-1.2,3.1,0,4.2c0.6,0.6,1.4,0.9,2.1,0.9s1.5-0.3,2.1-0.9l12-12c1.2-1.2,1.2-3.1,0-4.2L83.6,51.4z"/>
</g>
</svg>
