<?xml version="1.0" encoding="utf-8"?>
<!-- Generator: Adobe Illustrator 23.0.6, SVG Export Plug-In . SVG Version: 6.00 Build 0)  -->
<svg version="1.1" id="Layer_1" xmlns="http://www.w3.org/2000/svg" xmlns:xlink="http://www.w3.org/1999/xlink" x="0px" y="0px"
	 viewBox="0 0 100 100" style="enable-background:new 0 0 100 100;" xml:space="preserve">
<style type="text/css">
	.st0{fill:#192239;}
</style>
<title>Unlocked_New</title>
<desc>Created with Sketch.</desc>
<g>
	<path class="st0" d="M85.3,42.5h-8.2l1.2-3.2c2.6-7.3,2.3-15.1-0.8-22.1c-3.2-7-8.9-12.3-16.1-14.9C46.6-3.1,30.1,4.7,24.7,19.7
		l-1.2,3.3c-0.5,1.3,0.2,2.7,1.5,3.2c1.3,0.5,2.7-0.2,3.2-1.5l1.2-3.3C33.9,9,47.5,2.6,59.7,7c5.9,2.1,10.6,6.5,13.2,12.3
		c2.6,5.8,2.9,12.3,0.7,18.3l-1.2,3.3c-0.2,0.5-0.2,1.1,0,1.6H14c-1.1,0-2,0.9-2,2v52.1c0,1.3,1.1,2.4,2.4,2.4h70.5
		c1.3,0,2.4-1.1,2.4-2.4V44.5C87.3,43.4,86.4,42.5,85.3,42.5z M82.3,94H17V47.5h65.3V94z"/>
	<path class="st0" d="M46.7,73v10.1c0,1.4,1.1,2.5,2.5,2.5s2.5-1.1,2.5-2.5v-9.7c3.5-0.9,6.1-4,6.1-7.8c0-4.4-3.6-8.1-8-8.1
		c-4.4,0-8,3.6-8,8.1C41.7,68.9,43.8,71.8,46.7,73z M49.7,62.5c1.7,0,3,1.4,3,3.1c0,1.7-1.4,3.1-3,3.1c-1.7,0-3-1.4-3-3.1
		C46.7,63.9,48.1,62.5,49.7,62.5z"/>
</g>
</svg>
