<?xml version="1.0" encoding="utf-8"?>
<!-- Generator: Adobe Illustrator 23.0.6, SVG Export Plug-In . SVG Version: 6.00 Build 0)  -->
<svg version="1.1" id="Layer_1" xmlns="http://www.w3.org/2000/svg" xmlns:xlink="http://www.w3.org/1999/xlink" x="0px" y="0px"
	 viewBox="0 0 100 100" style="enable-background:new 0 0 100 100;" xml:space="preserve">
<style type="text/css">
	.st0{fill:#192239;}
	.st1{font-family:'NunitoSans-Bold';}
	.st2{font-size:15.9909px;}
	.st3{font-size:42.6425px;}
</style>
<path id="Shape" class="st0" d="M66.2,1H16.5c-3,0-5.5,2.5-5.5,5.5v87.6c0,3,2.5,5.5,5.5,5.5h66.2c3,0,5.5-2.5,5.5-5.5V23.1L66.2,1z
	 M66.2,8.8l14.3,14.3H66.2V8.8z M82.7,94.1H16.5V6.5h44.1v16.5c0,3,2.5,5.5,5.5,5.5h16.5L82.7,94.1L82.7,94.1z"/>
<text transform="matrix(1 0 0 1 32.3212 86.294)" class="st0 st1 st2">DOC</text>
<text transform="matrix(1 0 0 1 26.9909 65.3212)" class="st0 st1 st3">W</text>
</svg>
