<?xml version="1.0" encoding="UTF-8"?>
<svg width="22px" height="15px" viewBox="0 0 22 15" version="1.1" xmlns="http://www.w3.org/2000/svg" xmlns:xlink="http://www.w3.org/1999/xlink">
    <!-- Generator: Sketch 61 (89581) - https://sketch.com -->
    <title>XML Store</title>
    <desc>Created with Sketch.</desc>
    <g id="Page-2" stroke="none" stroke-width="1" fill="none" fill-rule="evenodd">
        <g id="XML-Store" fill="#192239" fill-rule="nonzero">
            <path d="M12.9238273,0.501556741 L13.0127254,0.517037087 C13.2498215,0.580566781 13.4012351,0.804252582 13.3817592,1.04051137 L13.3662788,1.12940952 L9.90035422,14.0644162 C9.82888331,14.3311493 9.55471483,14.4894405 9.28798178,14.4179696 C9.05088574,14.3544399 8.89947211,14.1307541 8.91894804,13.8944953 L8.93442839,13.8055972 L12.400353,0.870590477 C12.4638827,0.633494432 12.6875685,0.482080801 12.9238273,0.501556741 Z M15.8234359,2.06464362 L15.8926838,2.12249907 L21.3035879,7.53340313 C21.4771542,7.70696948 21.4964394,7.97639388 21.3614433,8.17126202 L21.3035879,8.24050991 L15.8926838,13.651414 C15.6974217,13.8466761 15.3808392,13.8466761 15.185577,13.651414 C15.0120107,13.4778476 14.9927255,13.2084232 15.1277216,13.0135551 L15.185577,12.9443072 L20.2429277,7.88701801 L15.185577,2.82960585 C15.0120107,2.6560395 14.9927255,2.38661509 15.1277216,2.19174695 L15.185577,2.12249907 C15.3591434,1.94893271 15.6285678,1.92964756 15.8234359,2.06464362 Z M6.26352058,2.06464362 C6.45838872,1.92964756 6.72781313,1.94893271 6.90137948,2.12249907 L6.90137948,2.12249907 L6.95923493,2.19174695 C7.09423098,2.38661509 7.07494583,2.6560395 6.90137948,2.82960585 L6.90137948,2.82960585 L1.8435369,7.88750991 L6.90137948,12.9443072 L6.95923493,13.0135551 C7.09423098,13.2084232 7.07494583,13.4778476 6.90137948,13.651414 C6.70611733,13.8466761 6.38953484,13.8466761 6.1942727,13.651414 L6.1942727,13.651414 L0.783368632,8.24050991 L0.725513181,8.17126202 C0.59051713,7.97639388 0.60980228,7.70696948 0.783368632,7.53340313 L0.783368632,7.53340313 L6.1942727,2.12249907 Z" id="Combined-Shape"></path>
        </g>
    </g>
</svg>